<?xml version="1.0" standalone="no"?>
<!DOCTYPE svg PUBLIC "-//W3C//DTD SVG 1.1//EN" "http://www.w3.org/Graphics/SVG/1.1/DTD/svg11.dtd">
<svg version="1.1" width="1200" height="470" onload="init(evt)" viewBox="0 0 1200 470" xmlns="http://www.w3.org/2000/svg" xmlns:xlink="http://www.w3.org/1999/xlink">
<!-- Flame graph stack visualization. See https://github.com/brendangregg/FlameGraph for latest version, and http://www.brendangregg.com/flamegraphs.html for examples. -->
<!-- NOTES:  -->
<defs>
	<linearGradient id="background" y1="0" y2="1" x1="0" x2="0" >
		<stop stop-color="#eeeeee" offset="5%" />
		<stop stop-color="#eeeeb0" offset="95%" />
	</linearGradient>
</defs>
<style type="text/css">
	text { font-family:Verdana; font-size:12px; fill:rgb(0,0,0); }
	#search, #ignorecase { opacity:0.1; cursor:pointer; }
	#search:hover, #search.show, #ignorecase:hover, #ignorecase.show { opacity:1; }
	#subtitle { text-anchor:middle; font-color:rgb(160,160,160); }
	#title { text-anchor:middle; font-size:17px}
	#unzoom { cursor:pointer; }
	#frames > *:hover { stroke:black; stroke-width:0.5; cursor:pointer; }
	.hide { display:none; }
	.parent { opacity:0.5; }
</style>
<script type="text/ecmascript">
<![CDATA[
	"use strict";
	var details, searchbtn, unzoombtn, matchedtxt, svg, searching, currentSearchTerm, ignorecase, ignorecaseBtn;
	function init(evt) {
		details = document.getElementById("details").firstChild;
		searchbtn = document.getElementById("search");
		ignorecaseBtn = document.getElementById("ignorecase");
		unzoombtn = document.getElementById("unzoom");
		matchedtxt = document.getElementById("matched");
		svg = document.getElementsByTagName("svg")[0];
		searching = 0;
		currentSearchTerm = null;
	}

	window.addEventListener("click", function(e) {
		var target = find_group(e.target);
		if (target) {
			if (target.nodeName == "a") {
				if (e.ctrlKey === false) return;
				e.preventDefault();
			}
			if (target.classList.contains("parent")) unzoom();
			zoom(target);
		}
		else if (e.target.id == "unzoom") unzoom();
		else if (e.target.id == "search") search_prompt();
		else if (e.target.id == "ignorecase") toggle_ignorecase();
	}, false)

	// mouse-over for info
	// show
	window.addEventListener("mouseover", function(e) {
		var target = find_group(e.target);
		if (target) details.nodeValue = "Function: " + g_to_text(target);
	}, false)

	// clear
	window.addEventListener("mouseout", function(e) {
		var target = find_group(e.target);
		if (target) details.nodeValue = ' ';
	}, false)

	// ctrl-F for search
	window.addEventListener("keydown",function (e) {
		if (e.keyCode === 114 || (e.ctrlKey && e.keyCode === 70)) {
			e.preventDefault();
			search_prompt();
		}
	}, false)

	// ctrl-I to toggle case-sensitive search
	window.addEventListener("keydown",function (e) {
		if (e.ctrlKey && e.keyCode === 73) {
			e.preventDefault();
			toggle_ignorecase();
		}
	}, false)

	// functions
	function find_child(node, selector) {
		var children = node.querySelectorAll(selector);
		if (children.length) return children[0];
		return;
	}
	function find_group(node) {
		var parent = node.parentElement;
		if (!parent) return;
		if (parent.id == "frames") return node;
		return find_group(parent);
	}
	function orig_save(e, attr, val) {
		if (e.attributes["_orig_" + attr] != undefined) return;
		if (e.attributes[attr] == undefined) return;
		if (val == undefined) val = e.attributes[attr].value;
		e.setAttribute("_orig_" + attr, val);
	}
	function orig_load(e, attr) {
		if (e.attributes["_orig_"+attr] == undefined) return;
		e.attributes[attr].value = e.attributes["_orig_" + attr].value;
		e.removeAttribute("_orig_"+attr);
	}
	function g_to_text(e) {
		var text = find_child(e, "title").firstChild.nodeValue;
		return (text)
	}
	function g_to_func(e) {
		var func = g_to_text(e);
		// if there's any manipulation we want to do to the function
		// name before it's searched, do it here before returning.
		return (func);
	}
	function update_text(e) {
		var r = find_child(e, "rect");
		var t = find_child(e, "text");
		var w = parseFloat(r.attributes.width.value) -3;
		var txt = find_child(e, "title").textContent.replace(/\([^(]*\)$/,"");
		t.attributes.x.value = parseFloat(r.attributes.x.value) + 3;

		// Smaller than this size won't fit anything
		if (w < 2 * 12 * 0.59) {
			t.textContent = "";
			return;
		}

		t.textContent = txt;
		// Fit in full text width
		if (/^ *$/.test(txt) || t.getSubStringLength(0, txt.length) < w)
			return;

		for (var x = txt.length - 2; x > 0; x--) {
			if (t.getSubStringLength(0, x + 2) <= w) {
				t.textContent = txt.substring(0, x) + "..";
				return;
			}
		}
		t.textContent = "";
	}

	// zoom
	function zoom_reset(e) {
		if (e.attributes != undefined) {
			orig_load(e, "x");
			orig_load(e, "width");
		}
		if (e.childNodes == undefined) return;
		for (var i = 0, c = e.childNodes; i < c.length; i++) {
			zoom_reset(c[i]);
		}
	}
	function zoom_child(e, x, ratio) {
		if (e.attributes != undefined) {
			if (e.attributes.x != undefined) {
				orig_save(e, "x");
				e.attributes.x.value = (parseFloat(e.attributes.x.value) - x - 10) * ratio + 10;
				if (e.tagName == "text")
					e.attributes.x.value = find_child(e.parentNode, "rect[x]").attributes.x.value + 3;
			}
			if (e.attributes.width != undefined) {
				orig_save(e, "width");
				e.attributes.width.value = parseFloat(e.attributes.width.value) * ratio;
			}
		}

		if (e.childNodes == undefined) return;
		for (var i = 0, c = e.childNodes; i < c.length; i++) {
			zoom_child(c[i], x - 10, ratio);
		}
	}
	function zoom_parent(e) {
		if (e.attributes) {
			if (e.attributes.x != undefined) {
				orig_save(e, "x");
				e.attributes.x.value = 10;
			}
			if (e.attributes.width != undefined) {
				orig_save(e, "width");
				e.attributes.width.value = parseInt(svg.width.baseVal.value) - (10 * 2);
			}
		}
		if (e.childNodes == undefined) return;
		for (var i = 0, c = e.childNodes; i < c.length; i++) {
			zoom_parent(c[i]);
		}
	}
	function zoom(node) {
		var attr = find_child(node, "rect").attributes;
		var width = parseFloat(attr.width.value);
		var xmin = parseFloat(attr.x.value);
		var xmax = parseFloat(xmin + width);
		var ymin = parseFloat(attr.y.value);
		var ratio = (svg.width.baseVal.value - 2 * 10) / width;

		// XXX: Workaround for JavaScript float issues (fix me)
		var fudge = 0.0001;

		unzoombtn.classList.remove("hide");

		var el = document.getElementById("frames").children;
		for (var i = 0; i < el.length; i++) {
			var e = el[i];
			var a = find_child(e, "rect").attributes;
			var ex = parseFloat(a.x.value);
			var ew = parseFloat(a.width.value);
			var upstack;
			// Is it an ancestor
			if (0 == 0) {
				upstack = parseFloat(a.y.value) > ymin;
			} else {
				upstack = parseFloat(a.y.value) < ymin;
			}
			if (upstack) {
				// Direct ancestor
				if (ex <= xmin && (ex+ew+fudge) >= xmax) {
					e.classList.add("parent");
					zoom_parent(e);
					update_text(e);
				}
				// not in current path
				else
					e.classList.add("hide");
			}
			// Children maybe
			else {
				// no common path
				if (ex < xmin || ex + fudge >= xmax) {
					e.classList.add("hide");
				}
				else {
					zoom_child(e, xmin, ratio);
					update_text(e);
				}
			}
		}
		search();
	}
	function unzoom() {
		unzoombtn.classList.add("hide");
		var el = document.getElementById("frames").children;
		for(var i = 0; i < el.length; i++) {
			el[i].classList.remove("parent");
			el[i].classList.remove("hide");
			zoom_reset(el[i]);
			update_text(el[i]);
		}
		search();
	}

	// search
	function toggle_ignorecase() {
		ignorecase = !ignorecase;
		if (ignorecase) {
			ignorecaseBtn.classList.add("show");
		} else {
			ignorecaseBtn.classList.remove("show");
		}
		reset_search();
		search();
	}
	function reset_search() {
		var el = document.querySelectorAll("#frames rect");
		for (var i = 0; i < el.length; i++) {
			orig_load(el[i], "fill")
		}
	}
	function search_prompt() {
		if (!searching) {
			var term = prompt("Enter a search term (regexp " +
			    "allowed, eg: ^ext4_)"
			    + (ignorecase ? ", ignoring case" : "")
			    + "\nPress Ctrl-i to toggle case sensitivity", "");
			if (term != null) {
				currentSearchTerm = term;
				search();
			}
		} else {
			reset_search();
			searching = 0;
			currentSearchTerm = null;
			searchbtn.classList.remove("show");
			searchbtn.firstChild.nodeValue = "Search"
			matchedtxt.classList.add("hide");
			matchedtxt.firstChild.nodeValue = ""
		}
	}
	function search(term) {
		if (currentSearchTerm === null) return;
		var term = currentSearchTerm;

		var re = new RegExp(term, ignorecase ? 'i' : '');
		var el = document.getElementById("frames").children;
		var matches = new Object();
		var maxwidth = 0;
		for (var i = 0; i < el.length; i++) {
			var e = el[i];
			var func = g_to_func(e);
			var rect = find_child(e, "rect");
			if (func == null || rect == null)
				continue;

			// Save max width. Only works as we have a root frame
			var w = parseFloat(rect.attributes.width.value);
			if (w > maxwidth)
				maxwidth = w;

			if (func.match(re)) {
				// highlight
				var x = parseFloat(rect.attributes.x.value);
				orig_save(rect, "fill");
				rect.attributes.fill.value = "rgb(230,0,230)";

				// remember matches
				if (matches[x] == undefined) {
					matches[x] = w;
				} else {
					if (w > matches[x]) {
						// overwrite with parent
						matches[x] = w;
					}
				}
				searching = 1;
			}
		}
		if (!searching)
			return;

		searchbtn.classList.add("show");
		searchbtn.firstChild.nodeValue = "Reset Search";

		// calculate percent matched, excluding vertical overlap
		var count = 0;
		var lastx = -1;
		var lastw = 0;
		var keys = Array();
		for (k in matches) {
			if (matches.hasOwnProperty(k))
				keys.push(k);
		}
		// sort the matched frames by their x location
		// ascending, then width descending
		keys.sort(function(a, b){
			return a - b;
		});
		// Step through frames saving only the biggest bottom-up frames
		// thanks to the sort order. This relies on the tree property
		// where children are always smaller than their parents.
		var fudge = 0.0001;	// JavaScript floating point
		for (var k in keys) {
			var x = parseFloat(keys[k]);
			var w = matches[keys[k]];
			if (x >= lastx + lastw - fudge) {
				count += w;
				lastx = x;
				lastw = w;
			}
		}
		// display matched percent
		matchedtxt.classList.remove("hide");
		var pct = 100 * count / maxwidth;
		if (pct != 100) pct = pct.toFixed(1)
		matchedtxt.firstChild.nodeValue = "Matched: " + pct + "%";
	}
]]>
</script>
<rect x="0.0" y="0" width="1200.0" height="470.0" fill="url(#background)"  />
<text id="title" x="600.00" y="24" >Flame Graph</text>
<text id="details" x="10.00" y="453" > </text>
<text id="unzoom" x="10.00" y="24" class="hide">Reset Zoom</text>
<text id="search" x="1090.00" y="24" >Search</text>
<text id="ignorecase" x="1174.00" y="24" >ic</text>
<text id="matched" x="1090.00" y="453" > </text>
<g id="frames">
<g >
<title>PageId::PageId (1 samples, 0.83%)</title><rect x="1022.8" y="197" width="9.9" height="15.0" fill="rgb(219,224,23)" rx="2" ry="2" />
<text  x="1025.83" y="207.5" ></text>
</g>
<g >
<title>std::unordered_map&lt;PageId, (1 samples, 0.83%)</title><rect x="10.0" y="325" width="9.8" height="15.0" fill="rgb(209,12,41)" rx="2" ry="2" />
<text  x="13.00" y="335.5" ></text>
</g>
<g >
<title>std::__uninitialized_copy_a&lt;__gnu_cxx::__normal_iterator&lt;PageId (1 samples, 0.83%)</title><rect x="1022.8" y="261" width="9.9" height="15.0" fill="rgb(215,18,15)" rx="2" ry="2" />
<text  x="1025.83" y="271.5" ></text>
</g>
<g >
<title>__GI___libc_read (64 samples, 53.33%)</title><rect x="314.8" y="213" width="629.4" height="15.0" fill="rgb(228,122,6)" rx="2" ry="2" />
<text  x="317.83" y="223.5" >__GI___libc_read</text>
</g>
<g >
<title>std::condition_variable::wait&lt;MultiThreadedPageRankComputer::WorkerData::wait()::{lambda()#1}&gt;(std::unique_lock&lt;std::mutex&gt;&amp;, (7 samples, 5.83%)</title><rect x="19.8" y="325" width="68.9" height="15.0" fill="rgb(238,213,1)" rx="2" ry="2" />
<text  x="22.83" y="335.5" >std::co..</text>
</g>
<g >
<title>std::__cxx11::basic_string&lt;char, (6 samples, 5.00%)</title><rect x="944.2" y="245" width="59.0" height="15.0" fill="rgb(253,101,53)" rx="2" ry="2" />
<text  x="947.17" y="255.5" >std::_..</text>
</g>
<g >
<title>std::__detail::_Map_base&lt;PageId, (1 samples, 0.83%)</title><rect x="10.0" y="309" width="9.8" height="15.0" fill="rgb(248,73,6)" rx="2" ry="2" />
<text  x="13.00" y="319.5" ></text>
</g>
<g >
<title>_int_malloc (1 samples, 0.83%)</title><rect x="1052.3" y="293" width="9.9" height="15.0" fill="rgb(245,85,51)" rx="2" ry="2" />
<text  x="1055.33" y="303.5" ></text>
</g>
<g >
<title>operator (1 samples, 0.83%)</title><rect x="1052.3" y="325" width="9.9" height="15.0" fill="rgb(226,81,6)" rx="2" ry="2" />
<text  x="1055.33" y="335.5" ></text>
</g>
<g >
<title>std::_Hashtable&lt;PageId, (2 samples, 1.67%)</title><rect x="1003.2" y="309" width="19.6" height="15.0" fill="rgb(253,221,16)" rx="2" ry="2" />
<text  x="1006.17" y="319.5" ></text>
</g>
<g >
<title>fgets (64 samples, 53.33%)</title><rect x="314.8" y="309" width="629.4" height="15.0" fill="rgb(212,206,26)" rx="2" ry="2" />
<text  x="317.83" y="319.5" >fgets</text>
</g>
<g >
<title>__GI__IO_getline_info (64 samples, 53.33%)</title><rect x="314.8" y="261" width="629.4" height="15.0" fill="rgb(217,84,13)" rx="2" ry="2" />
<text  x="317.83" y="271.5" >__GI__IO_getline_info</text>
</g>
<g >
<title>clone (9 samples, 7.50%)</title><rect x="226.3" y="213" width="88.5" height="15.0" fill="rgb(209,86,10)" rx="2" ry="2" />
<text  x="229.33" y="223.5" >clone</text>
</g>
<g >
<title>_IO_new_file_close_it (5 samples, 4.17%)</title><rect x="88.7" y="293" width="49.1" height="15.0" fill="rgb(219,47,30)" rx="2" ry="2" />
<text  x="91.67" y="303.5" >_IO_..</text>
</g>
<g >
<title>std::__cxx11::basic_string&lt;char, (1 samples, 0.83%)</title><rect x="1022.8" y="149" width="9.9" height="15.0" fill="rgb(226,99,9)" rx="2" ry="2" />
<text  x="1025.83" y="159.5" ></text>
</g>
<g >
<title>start_thread (104 samples, 86.67%)</title><rect x="10.0" y="389" width="1022.7" height="15.0" fill="rgb(218,103,12)" rx="2" ry="2" />
<text  x="13.00" y="399.5" >start_thread</text>
</g>
<g >
<title>all (120 samples, 100%)</title><rect x="10.0" y="421" width="1180.0" height="15.0" fill="rgb(228,138,26)" rx="2" ry="2" />
<text  x="13.00" y="431.5" ></text>
</g>
<g >
<title>std::__cxx11::basic_string&lt;char, (1 samples, 0.83%)</title><rect x="1052.3" y="341" width="9.9" height="15.0" fill="rgb(221,50,22)" rx="2" ry="2" />
<text  x="1055.33" y="351.5" ></text>
</g>
<g >
<title>std::condition_variable::wait(std::unique_lock&lt;std::mutex&gt;&amp;) (7 samples, 5.83%)</title><rect x="19.8" y="309" width="68.9" height="15.0" fill="rgb(217,168,31)" rx="2" ry="2" />
<text  x="22.83" y="319.5" >std::co..</text>
</g>
<g >
<title>std::__detail::_Map_base&lt;PageId, (2 samples, 1.67%)</title><rect x="1003.2" y="325" width="19.6" height="15.0" fill="rgb(212,218,31)" rx="2" ry="2" />
<text  x="1006.17" y="335.5" ></text>
</g>
<g >
<title>clone (104 samples, 86.67%)</title><rect x="10.0" y="405" width="1022.7" height="15.0" fill="rgb(209,43,23)" rx="2" ry="2" />
<text  x="13.00" y="415.5" >clone</text>
</g>
<g >
<title>main (16 samples, 13.33%)</title><rect x="1032.7" y="405" width="157.3" height="15.0" fill="rgb(240,225,14)" rx="2" ry="2" />
<text  x="1035.67" y="415.5" >main</text>
</g>
<g >
<title>std::__cxx11::basic_string&lt;char, (1 samples, 0.83%)</title><rect x="1022.8" y="181" width="9.9" height="15.0" fill="rgb(208,0,8)" rx="2" ry="2" />
<text  x="1025.83" y="191.5" ></text>
</g>
<g >
<title>std::getline&lt;char, (1 samples, 0.83%)</title><rect x="1052.3" y="373" width="9.9" height="15.0" fill="rgb(253,106,46)" rx="2" ry="2" />
<text  x="1055.33" y="383.5" ></text>
</g>
<g >
<title>PageId::PageId (6 samples, 5.00%)</title><rect x="944.2" y="341" width="59.0" height="15.0" fill="rgb(233,95,27)" rx="2" ry="2" />
<text  x="947.17" y="351.5" >PageId..</text>
</g>
<g >
<title>Page::generateId (87 samples, 72.50%)</title><rect x="88.7" y="341" width="855.5" height="15.0" fill="rgb(218,54,46)" rx="2" ry="2" />
<text  x="91.67" y="351.5" >Page::generateId</text>
</g>
<g >
<title>std::basic_istream&lt;char, (2 samples, 1.67%)</title><rect x="1032.7" y="373" width="19.6" height="15.0" fill="rgb(224,25,4)" rx="2" ry="2" />
<text  x="1035.67" y="383.5" ></text>
</g>
<g >
<title>std::__cxx11::basic_string&lt;char, (1 samples, 0.83%)</title><rect x="1022.8" y="165" width="9.9" height="15.0" fill="rgb(230,105,54)" rx="2" ry="2" />
<text  x="1025.83" y="175.5" ></text>
</g>
<g >
<title>std::_Hashtable&lt;PageId, (2 samples, 1.67%)</title><rect x="1003.2" y="293" width="19.6" height="15.0" fill="rgb(228,176,37)" rx="2" ry="2" />
<text  x="1006.17" y="303.5" ></text>
</g>
<g >
<title>std::__uninitialized_copy&lt;false&gt;::__uninit_copy&lt;__gnu_cxx::__normal_iterator&lt;PageId (1 samples, 0.83%)</title><rect x="1022.8" y="229" width="9.9" height="15.0" fill="rgb(220,28,1)" rx="2" ry="2" />
<text  x="1025.83" y="239.5" ></text>
</g>
<g >
<title>std::__detail::_Hashtable_base&lt;PageId, (1 samples, 0.83%)</title><rect x="10.0" y="245" width="9.8" height="15.0" fill="rgb(218,103,7)" rx="2" ry="2" />
<text  x="13.00" y="255.5" ></text>
</g>
<g >
<title>MultiThreadedPageRankComputer::WorkerData::initContainersSequential (1 samples, 0.83%)</title><rect x="10.0" y="341" width="9.8" height="15.0" fill="rgb(235,179,45)" rx="2" ry="2" />
<text  x="13.00" y="351.5" ></text>
</g>
<g >
<title>__gnu_cxx::new_allocator&lt;Page&gt;::construct&lt;Page, (1 samples, 0.83%)</title><rect x="1022.8" y="309" width="9.9" height="15.0" fill="rgb(205,1,41)" rx="2" ry="2" />
<text  x="1025.83" y="319.5" ></text>
</g>
<g >
<title>std::unordered_map&lt;PageId, (2 samples, 1.67%)</title><rect x="1003.2" y="341" width="19.6" height="15.0" fill="rgb(211,21,21)" rx="2" ry="2" />
<text  x="1006.17" y="351.5" ></text>
</g>
<g >
<title>std::char_traits&lt;char&gt;::compare (1 samples, 0.83%)</title><rect x="10.0" y="165" width="9.8" height="15.0" fill="rgb(229,131,13)" rx="2" ry="2" />
<text  x="13.00" y="175.5" ></text>
</g>
<g >
<title>std::__cxx11::basic_string&lt;char, (1 samples, 0.83%)</title><rect x="1022.8" y="133" width="9.9" height="15.0" fill="rgb(236,106,17)" rx="2" ry="2" />
<text  x="1025.83" y="143.5" ></text>
</g>
<g >
<title>__GI___libc_malloc (1 samples, 0.83%)</title><rect x="1022.8" y="101" width="9.9" height="15.0" fill="rgb(215,72,8)" rx="2" ry="2" />
<text  x="1025.83" y="111.5" ></text>
</g>
<g >
<title>std::__detail::_Hashtable_base&lt;PageId, (1 samples, 0.83%)</title><rect x="10.0" y="261" width="9.8" height="15.0" fill="rgb(240,183,19)" rx="2" ry="2" />
<text  x="13.00" y="271.5" ></text>
</g>
<g >
<title>std::char_traits&lt;char&gt;::copy (6 samples, 5.00%)</title><rect x="944.2" y="213" width="59.0" height="15.0" fill="rgb(249,192,38)" rx="2" ry="2" />
<text  x="947.17" y="223.5" >std::c..</text>
</g>
<g >
<title>mprotect (1 samples, 0.83%)</title><rect x="1022.8" y="37" width="9.9" height="15.0" fill="rgb(221,111,48)" rx="2" ry="2" />
<text  x="1025.83" y="47.5" ></text>
</g>
<g >
<title>_IO_fgets (64 samples, 53.33%)</title><rect x="314.8" y="293" width="629.4" height="15.0" fill="rgb(251,141,24)" rx="2" ry="2" />
<text  x="317.83" y="303.5" >_IO_fgets</text>
</g>
<g >
<title>std::_Hashtable&lt;PageId, (1 samples, 0.83%)</title><rect x="10.0" y="293" width="9.8" height="15.0" fill="rgb(245,171,34)" rx="2" ry="2" />
<text  x="13.00" y="303.5" ></text>
</g>
<g >
<title>_IO_new_proc_open (18 samples, 15.00%)</title><rect x="137.8" y="293" width="177.0" height="15.0" fill="rgb(207,145,17)" rx="2" ry="2" />
<text  x="140.83" y="303.5" >_IO_new_proc_open</text>
</g>
<g >
<title>futex_wait_cancelable (7 samples, 5.83%)</title><rect x="19.8" y="261" width="68.9" height="15.0" fill="rgb(229,116,5)" rx="2" ry="2" />
<text  x="22.83" y="271.5" >futex_w..</text>
</g>
<g >
<title>Page::Page (1 samples, 0.83%)</title><rect x="1022.8" y="293" width="9.9" height="15.0" fill="rgb(216,195,24)" rx="2" ry="2" />
<text  x="1025.83" y="303.5" ></text>
</g>
<g >
<title>__GI___posix_spawn (10 samples, 8.33%)</title><rect x="216.5" y="261" width="98.3" height="15.0" fill="rgb(249,150,27)" rx="2" ry="2" />
<text  x="219.50" y="271.5" >__GI___posi..</text>
</g>
<g >
<title>std::uninitialized_copy&lt;__gnu_cxx::__normal_iterator&lt;PageId (1 samples, 0.83%)</title><rect x="1022.8" y="245" width="9.9" height="15.0" fill="rgb(254,71,25)" rx="2" ry="2" />
<text  x="1025.83" y="255.5" ></text>
</g>
<g >
<title>std::basic_istream&lt;char, (1 samples, 0.83%)</title><rect x="1052.3" y="357" width="9.9" height="15.0" fill="rgb(222,29,34)" rx="2" ry="2" />
<text  x="1055.33" y="367.5" ></text>
</g>
<g >
<title>__pthread_clockjoin_ex (13 samples, 10.83%)</title><rect x="1062.2" y="341" width="127.8" height="15.0" fill="rgb(212,105,32)" rx="2" ry="2" />
<text  x="1065.17" y="351.5" >__pthread_clockj..</text>
</g>
<g >
<title>_IO_new_popen (18 samples, 15.00%)</title><rect x="137.8" y="309" width="177.0" height="15.0" fill="rgb(211,116,18)" rx="2" ry="2" />
<text  x="140.83" y="319.5" >_IO_new_popen</text>
</g>
<g >
<title>sysmalloc (1 samples, 0.83%)</title><rect x="1022.8" y="69" width="9.9" height="15.0" fill="rgb(221,55,13)" rx="2" ry="2" />
<text  x="1025.83" y="79.5" ></text>
</g>
<g >
<title>operator (1 samples, 0.83%)</title><rect x="1022.8" y="117" width="9.9" height="15.0" fill="rgb(235,123,14)" rx="2" ry="2" />
<text  x="1025.83" y="127.5" ></text>
</g>
<g >
<title>__memmove_avx_unaligned (6 samples, 5.00%)</title><rect x="944.2" y="197" width="59.0" height="15.0" fill="rgb(239,41,30)" rx="2" ry="2" />
<text  x="947.17" y="207.5" >__memm..</text>
</g>
<g >
<title>__dynamic_cast (1 samples, 0.83%)</title><rect x="1042.5" y="341" width="9.8" height="15.0" fill="rgb(243,211,2)" rx="2" ry="2" />
<text  x="1045.50" y="351.5" ></text>
</g>
<g >
<title>spawn_process (10 samples, 8.33%)</title><rect x="216.5" y="277" width="98.3" height="15.0" fill="rgb(249,228,45)" rx="2" ry="2" />
<text  x="219.50" y="287.5" >spawn_process</text>
</g>
<g >
<title>std::__detail::_Hashtable_base&lt;PageId, (1 samples, 0.83%)</title><rect x="1013.0" y="277" width="9.8" height="15.0" fill="rgb(231,27,2)" rx="2" ry="2" />
<text  x="1016.00" y="287.5" ></text>
</g>
<g >
<title>std::vector&lt;PageId, (1 samples, 0.83%)</title><rect x="1022.8" y="277" width="9.9" height="15.0" fill="rgb(217,172,8)" rx="2" ry="2" />
<text  x="1025.83" y="287.5" ></text>
</g>
<g >
<title>std::__cxx11::basic_string&lt;char, (6 samples, 5.00%)</title><rect x="944.2" y="309" width="59.0" height="15.0" fill="rgb(226,115,41)" rx="2" ry="2" />
<text  x="947.17" y="319.5" >std::_..</text>
</g>
<g >
<title>__lll_lock_wait_private (8 samples, 6.67%)</title><rect x="137.8" y="277" width="78.7" height="15.0" fill="rgb(218,228,11)" rx="2" ry="2" />
<text  x="140.83" y="287.5" >__lll_loc..</text>
</g>
<g >
<title>std::_Construct&lt;PageId, (1 samples, 0.83%)</title><rect x="1022.8" y="213" width="9.9" height="15.0" fill="rgb(213,136,51)" rx="2" ry="2" />
<text  x="1025.83" y="223.5" ></text>
</g>
<g >
<title>__GI__IO_getline (64 samples, 53.33%)</title><rect x="314.8" y="277" width="629.4" height="15.0" fill="rgb(251,128,38)" rx="2" ry="2" />
<text  x="317.83" y="287.5" >__GI__IO_getline</text>
</g>
<g >
<title>pageRankComputationWithNetwork (13 samples, 10.83%)</title><rect x="1062.2" y="389" width="127.8" height="15.0" fill="rgb(248,86,43)" rx="2" ry="2" />
<text  x="1065.17" y="399.5" >pageRankComputat..</text>
</g>
<g >
<title>std::operator==&lt;char&gt; (1 samples, 0.83%)</title><rect x="10.0" y="181" width="9.8" height="15.0" fill="rgb(226,210,15)" rx="2" ry="2" />
<text  x="13.00" y="191.5" ></text>
</g>
<g >
<title>std::__cxx11::basic_string&lt;char, (6 samples, 5.00%)</title><rect x="944.2" y="261" width="59.0" height="15.0" fill="rgb(209,169,29)" rx="2" ry="2" />
<text  x="947.17" y="271.5" >std::_..</text>
</g>
<g >
<title>__memcmp_avx2_movbe (1 samples, 0.83%)</title><rect x="10.0" y="149" width="9.8" height="15.0" fill="rgb(239,46,14)" rx="2" ry="2" />
<text  x="13.00" y="159.5" ></text>
</g>
<g >
<title>__cxxabiv1::__vmi_class_type_info::__do_dyncast(long, (1 samples, 0.83%)</title><rect x="1042.5" y="325" width="9.8" height="15.0" fill="rgb(227,2,10)" rx="2" ry="2" />
<text  x="1045.50" y="335.5" ></text>
</g>
<g >
<title>__spawnix (10 samples, 8.33%)</title><rect x="216.5" y="229" width="98.3" height="15.0" fill="rgb(205,145,29)" rx="2" ry="2" />
<text  x="219.50" y="239.5" >__spawnix</text>
</g>
<g >
<title>__spawni (10 samples, 8.33%)</title><rect x="216.5" y="245" width="98.3" height="15.0" fill="rgb(213,105,38)" rx="2" ry="2" />
<text  x="219.50" y="255.5" >__spawni</text>
</g>
<g >
<title>MultiThreadedPageRankComputer::computeForNetwork (13 samples, 10.83%)</title><rect x="1062.2" y="373" width="127.8" height="15.0" fill="rgb(220,169,26)" rx="2" ry="2" />
<text  x="1065.17" y="383.5" >MultiThreadedPag..</text>
</g>
<g >
<title>__lll_lock_wait_private (5 samples, 4.17%)</title><rect x="88.7" y="261" width="49.1" height="15.0" fill="rgb(249,170,22)" rx="2" ry="2" />
<text  x="91.67" y="271.5" >__ll..</text>
</g>
<g >
<title>__pthread_cond_wait (7 samples, 5.83%)</title><rect x="19.8" y="293" width="68.9" height="15.0" fill="rgb(236,162,33)" rx="2" ry="2" />
<text  x="22.83" y="303.5" >__pthre..</text>
</g>
<g >
<title>std::__cxx11::basic_string&lt;char, (6 samples, 5.00%)</title><rect x="944.2" y="325" width="59.0" height="15.0" fill="rgb(246,57,46)" rx="2" ry="2" />
<text  x="947.17" y="335.5" >std::_..</text>
</g>
<g >
<title>?? (104 samples, 86.67%)</title><rect x="10.0" y="373" width="1022.7" height="15.0" fill="rgb(244,118,11)" rx="2" ry="2" />
<text  x="13.00" y="383.5" >??</text>
</g>
<g >
<title>std::__detail::_Equal_helper&lt;PageId, (1 samples, 0.83%)</title><rect x="10.0" y="229" width="9.8" height="15.0" fill="rgb(226,28,16)" rx="2" ry="2" />
<text  x="13.00" y="239.5" ></text>
</g>
<g >
<title>__GI___mmap64 (1 samples, 0.83%)</title><rect x="216.5" y="213" width="9.8" height="15.0" fill="rgb(224,98,18)" rx="2" ry="2" />
<text  x="219.50" y="223.5" ></text>
</g>
<g >
<title>std::allocator_traits&lt;std::allocator&lt;Page&gt; (1 samples, 0.83%)</title><rect x="1022.8" y="325" width="9.9" height="15.0" fill="rgb(225,201,8)" rx="2" ry="2" />
<text  x="1025.83" y="335.5" ></text>
</g>
<g >
<title>grow_heap (1 samples, 0.83%)</title><rect x="1022.8" y="53" width="9.9" height="15.0" fill="rgb(219,84,8)" rx="2" ry="2" />
<text  x="1025.83" y="63.5" ></text>
</g>
<g >
<title>__GI___libc_read (64 samples, 53.33%)</title><rect x="314.8" y="197" width="629.4" height="15.0" fill="rgb(233,160,16)" rx="2" ry="2" />
<text  x="317.83" y="207.5" >__GI___libc_read</text>
</g>
<g >
<title>_IO_new_file_underflow (64 samples, 53.33%)</title><rect x="314.8" y="229" width="629.4" height="15.0" fill="rgb(252,154,22)" rx="2" ry="2" />
<text  x="317.83" y="239.5" >_IO_new_file_underflow</text>
</g>
<g >
<title>__GI___libc_malloc (1 samples, 0.83%)</title><rect x="1052.3" y="309" width="9.9" height="15.0" fill="rgb(209,100,17)" rx="2" ry="2" />
<text  x="1055.33" y="319.5" ></text>
</g>
<g >
<title>std::__cxx11::basic_string&lt;char, (6 samples, 5.00%)</title><rect x="944.2" y="277" width="59.0" height="15.0" fill="rgb(247,118,36)" rx="2" ry="2" />
<text  x="947.17" y="287.5" >std::_..</text>
</g>
<g >
<title>__GI___mmap64 (1 samples, 0.83%)</title><rect x="216.5" y="197" width="9.8" height="15.0" fill="rgb(208,145,39)" rx="2" ry="2" />
<text  x="219.50" y="207.5" ></text>
</g>
<g >
<title>StdinGenerator::generateNetworkOfSize (3 samples, 2.50%)</title><rect x="1032.7" y="389" width="29.5" height="15.0" fill="rgb(231,30,9)" rx="2" ry="2" />
<text  x="1035.67" y="399.5" >St..</text>
</g>
<g >
<title>Sha256IdGenerator::generateId (87 samples, 72.50%)</title><rect x="88.7" y="325" width="855.5" height="15.0" fill="rgb(219,205,48)" rx="2" ry="2" />
<text  x="91.67" y="335.5" >Sha256IdGenerator::generateId</text>
</g>
<g >
<title>__pthread_cond_wait_common (7 samples, 5.83%)</title><rect x="19.8" y="277" width="68.9" height="15.0" fill="rgb(227,73,29)" rx="2" ry="2" />
<text  x="22.83" y="287.5" >__pthre..</text>
</g>
<g >
<title>_IO_new_proc_close (5 samples, 4.17%)</title><rect x="88.7" y="277" width="49.1" height="15.0" fill="rgb(211,210,44)" rx="2" ry="2" />
<text  x="91.67" y="287.5" >_IO_..</text>
</g>
<g >
<title>PageId::operator== (1 samples, 0.83%)</title><rect x="10.0" y="197" width="9.8" height="15.0" fill="rgb(247,193,13)" rx="2" ry="2" />
<text  x="13.00" y="207.5" ></text>
</g>
<g >
<title>MultiThreadedPageRankComputer::WorkerData::work (104 samples, 86.67%)</title><rect x="10.0" y="357" width="1022.7" height="15.0" fill="rgb(210,220,48)" rx="2" ry="2" />
<text  x="13.00" y="367.5" >MultiThreadedPageRankComputer::WorkerData::work</text>
</g>
<g >
<title>MultiThreadedPageRankComputer::WorkerData::wait (7 samples, 5.83%)</title><rect x="19.8" y="341" width="68.9" height="15.0" fill="rgb(243,31,28)" rx="2" ry="2" />
<text  x="22.83" y="351.5" >MultiTh..</text>
</g>
<g >
<title>_IO_new_fclose (5 samples, 4.17%)</title><rect x="88.7" y="309" width="49.1" height="15.0" fill="rgb(239,200,42)" rx="2" ry="2" />
<text  x="91.67" y="319.5" >_IO_..</text>
</g>
<g >
<title>std::_Hashtable&lt;PageId, (1 samples, 0.83%)</title><rect x="10.0" y="277" width="9.8" height="15.0" fill="rgb(228,34,2)" rx="2" ry="2" />
<text  x="13.00" y="287.5" ></text>
</g>
<g >
<title>std::equal_to&lt;PageId&gt;::operator() (1 samples, 0.83%)</title><rect x="10.0" y="213" width="9.8" height="15.0" fill="rgb(231,129,46)" rx="2" ry="2" />
<text  x="13.00" y="223.5" ></text>
</g>
<g >
<title>std::ctype&lt;char&gt; (1 samples, 0.83%)</title><rect x="1042.5" y="357" width="9.8" height="15.0" fill="rgb(246,215,50)" rx="2" ry="2" />
<text  x="1045.50" y="367.5" ></text>
</g>
<g >
<title>_int_malloc (1 samples, 0.83%)</title><rect x="1022.8" y="85" width="9.9" height="15.0" fill="rgb(221,81,40)" rx="2" ry="2" />
<text  x="1025.83" y="95.5" ></text>
</g>
<g >
<title>std::vector&lt;Page, (1 samples, 0.83%)</title><rect x="1022.8" y="341" width="9.9" height="15.0" fill="rgb(245,104,23)" rx="2" ry="2" />
<text  x="1025.83" y="351.5" ></text>
</g>
<g >
<title>__GI__IO_default_uflow (64 samples, 53.33%)</title><rect x="314.8" y="245" width="629.4" height="15.0" fill="rgb(243,133,20)" rx="2" ry="2" />
<text  x="317.83" y="255.5" >__GI__IO_default_uflow</text>
</g>
<g >
<title>std::__cxx11::basic_string&lt;char, (6 samples, 5.00%)</title><rect x="944.2" y="293" width="59.0" height="15.0" fill="rgb(223,228,40)" rx="2" ry="2" />
<text  x="947.17" y="303.5" >std::_..</text>
</g>
<g >
<title>std::thread::join() (13 samples, 10.83%)</title><rect x="1062.2" y="357" width="127.8" height="15.0" fill="rgb(238,177,20)" rx="2" ry="2" />
<text  x="1065.17" y="367.5" >std::thread::joi..</text>
</g>
<g >
<title>std::__cxx11::basic_string&lt;char, (6 samples, 5.00%)</title><rect x="944.2" y="229" width="59.0" height="15.0" fill="rgb(235,188,11)" rx="2" ry="2" />
<text  x="947.17" y="239.5" >std::_..</text>
</g>
<g >
<title>std::__detail::_Equal_helper&lt;PageId, (1 samples, 0.83%)</title><rect x="1013.0" y="261" width="9.8" height="15.0" fill="rgb(215,168,5)" rx="2" ry="2" />
<text  x="1016.00" y="271.5" ></text>
</g>
</g>
</svg>
