<?xml version="1.0" standalone="no"?>
<!DOCTYPE svg PUBLIC "-//W3C//DTD SVG 1.1//EN" "http://www.w3.org/Graphics/SVG/1.1/DTD/svg11.dtd">
<svg version="1.1" width="1200" height="326" onload="init(evt)" viewBox="0 0 1200 326" xmlns="http://www.w3.org/2000/svg" xmlns:xlink="http://www.w3.org/1999/xlink">
<!-- Flame graph stack visualization. See https://github.com/brendangregg/FlameGraph for latest version, and http://www.brendangregg.com/flamegraphs.html for examples. -->
<!-- NOTES:  -->
<defs>
	<linearGradient id="background" y1="0" y2="1" x1="0" x2="0" >
		<stop stop-color="#eeeeee" offset="5%" />
		<stop stop-color="#eeeeb0" offset="95%" />
	</linearGradient>
</defs>
<style type="text/css">
	text { font-family:Verdana; font-size:12px; fill:rgb(0,0,0); }
	#search, #ignorecase { opacity:0.1; cursor:pointer; }
	#search:hover, #search.show, #ignorecase:hover, #ignorecase.show { opacity:1; }
	#subtitle { text-anchor:middle; font-color:rgb(160,160,160); }
	#title { text-anchor:middle; font-size:17px}
	#unzoom { cursor:pointer; }
	#frames > *:hover { stroke:black; stroke-width:0.5; cursor:pointer; }
	.hide { display:none; }
	.parent { opacity:0.5; }
</style>
<script type="text/ecmascript">
<![CDATA[
	"use strict";
	var details, searchbtn, unzoombtn, matchedtxt, svg, searching, currentSearchTerm, ignorecase, ignorecaseBtn;
	function init(evt) {
		details = document.getElementById("details").firstChild;
		searchbtn = document.getElementById("search");
		ignorecaseBtn = document.getElementById("ignorecase");
		unzoombtn = document.getElementById("unzoom");
		matchedtxt = document.getElementById("matched");
		svg = document.getElementsByTagName("svg")[0];
		searching = 0;
		currentSearchTerm = null;
	}

	window.addEventListener("click", function(e) {
		var target = find_group(e.target);
		if (target) {
			if (target.nodeName == "a") {
				if (e.ctrlKey === false) return;
				e.preventDefault();
			}
			if (target.classList.contains("parent")) unzoom();
			zoom(target);
		}
		else if (e.target.id == "unzoom") unzoom();
		else if (e.target.id == "search") search_prompt();
		else if (e.target.id == "ignorecase") toggle_ignorecase();
	}, false)

	// mouse-over for info
	// show
	window.addEventListener("mouseover", function(e) {
		var target = find_group(e.target);
		if (target) details.nodeValue = "Function: " + g_to_text(target);
	}, false)

	// clear
	window.addEventListener("mouseout", function(e) {
		var target = find_group(e.target);
		if (target) details.nodeValue = ' ';
	}, false)

	// ctrl-F for search
	window.addEventListener("keydown",function (e) {
		if (e.keyCode === 114 || (e.ctrlKey && e.keyCode === 70)) {
			e.preventDefault();
			search_prompt();
		}
	}, false)

	// ctrl-I to toggle case-sensitive search
	window.addEventListener("keydown",function (e) {
		if (e.ctrlKey && e.keyCode === 73) {
			e.preventDefault();
			toggle_ignorecase();
		}
	}, false)

	// functions
	function find_child(node, selector) {
		var children = node.querySelectorAll(selector);
		if (children.length) return children[0];
		return;
	}
	function find_group(node) {
		var parent = node.parentElement;
		if (!parent) return;
		if (parent.id == "frames") return node;
		return find_group(parent);
	}
	function orig_save(e, attr, val) {
		if (e.attributes["_orig_" + attr] != undefined) return;
		if (e.attributes[attr] == undefined) return;
		if (val == undefined) val = e.attributes[attr].value;
		e.setAttribute("_orig_" + attr, val);
	}
	function orig_load(e, attr) {
		if (e.attributes["_orig_"+attr] == undefined) return;
		e.attributes[attr].value = e.attributes["_orig_" + attr].value;
		e.removeAttribute("_orig_"+attr);
	}
	function g_to_text(e) {
		var text = find_child(e, "title").firstChild.nodeValue;
		return (text)
	}
	function g_to_func(e) {
		var func = g_to_text(e);
		// if there's any manipulation we want to do to the function
		// name before it's searched, do it here before returning.
		return (func);
	}
	function update_text(e) {
		var r = find_child(e, "rect");
		var t = find_child(e, "text");
		var w = parseFloat(r.attributes.width.value) -3;
		var txt = find_child(e, "title").textContent.replace(/\([^(]*\)$/,"");
		t.attributes.x.value = parseFloat(r.attributes.x.value) + 3;

		// Smaller than this size won't fit anything
		if (w < 2 * 12 * 0.59) {
			t.textContent = "";
			return;
		}

		t.textContent = txt;
		// Fit in full text width
		if (/^ *$/.test(txt) || t.getSubStringLength(0, txt.length) < w)
			return;

		for (var x = txt.length - 2; x > 0; x--) {
			if (t.getSubStringLength(0, x + 2) <= w) {
				t.textContent = txt.substring(0, x) + "..";
				return;
			}
		}
		t.textContent = "";
	}

	// zoom
	function zoom_reset(e) {
		if (e.attributes != undefined) {
			orig_load(e, "x");
			orig_load(e, "width");
		}
		if (e.childNodes == undefined) return;
		for (var i = 0, c = e.childNodes; i < c.length; i++) {
			zoom_reset(c[i]);
		}
	}
	function zoom_child(e, x, ratio) {
		if (e.attributes != undefined) {
			if (e.attributes.x != undefined) {
				orig_save(e, "x");
				e.attributes.x.value = (parseFloat(e.attributes.x.value) - x - 10) * ratio + 10;
				if (e.tagName == "text")
					e.attributes.x.value = find_child(e.parentNode, "rect[x]").attributes.x.value + 3;
			}
			if (e.attributes.width != undefined) {
				orig_save(e, "width");
				e.attributes.width.value = parseFloat(e.attributes.width.value) * ratio;
			}
		}

		if (e.childNodes == undefined) return;
		for (var i = 0, c = e.childNodes; i < c.length; i++) {
			zoom_child(c[i], x - 10, ratio);
		}
	}
	function zoom_parent(e) {
		if (e.attributes) {
			if (e.attributes.x != undefined) {
				orig_save(e, "x");
				e.attributes.x.value = 10;
			}
			if (e.attributes.width != undefined) {
				orig_save(e, "width");
				e.attributes.width.value = parseInt(svg.width.baseVal.value) - (10 * 2);
			}
		}
		if (e.childNodes == undefined) return;
		for (var i = 0, c = e.childNodes; i < c.length; i++) {
			zoom_parent(c[i]);
		}
	}
	function zoom(node) {
		var attr = find_child(node, "rect").attributes;
		var width = parseFloat(attr.width.value);
		var xmin = parseFloat(attr.x.value);
		var xmax = parseFloat(xmin + width);
		var ymin = parseFloat(attr.y.value);
		var ratio = (svg.width.baseVal.value - 2 * 10) / width;

		// XXX: Workaround for JavaScript float issues (fix me)
		var fudge = 0.0001;

		unzoombtn.classList.remove("hide");

		var el = document.getElementById("frames").children;
		for (var i = 0; i < el.length; i++) {
			var e = el[i];
			var a = find_child(e, "rect").attributes;
			var ex = parseFloat(a.x.value);
			var ew = parseFloat(a.width.value);
			var upstack;
			// Is it an ancestor
			if (0 == 0) {
				upstack = parseFloat(a.y.value) > ymin;
			} else {
				upstack = parseFloat(a.y.value) < ymin;
			}
			if (upstack) {
				// Direct ancestor
				if (ex <= xmin && (ex+ew+fudge) >= xmax) {
					e.classList.add("parent");
					zoom_parent(e);
					update_text(e);
				}
				// not in current path
				else
					e.classList.add("hide");
			}
			// Children maybe
			else {
				// no common path
				if (ex < xmin || ex + fudge >= xmax) {
					e.classList.add("hide");
				}
				else {
					zoom_child(e, xmin, ratio);
					update_text(e);
				}
			}
		}
		search();
	}
	function unzoom() {
		unzoombtn.classList.add("hide");
		var el = document.getElementById("frames").children;
		for(var i = 0; i < el.length; i++) {
			el[i].classList.remove("parent");
			el[i].classList.remove("hide");
			zoom_reset(el[i]);
			update_text(el[i]);
		}
		search();
	}

	// search
	function toggle_ignorecase() {
		ignorecase = !ignorecase;
		if (ignorecase) {
			ignorecaseBtn.classList.add("show");
		} else {
			ignorecaseBtn.classList.remove("show");
		}
		reset_search();
		search();
	}
	function reset_search() {
		var el = document.querySelectorAll("#frames rect");
		for (var i = 0; i < el.length; i++) {
			orig_load(el[i], "fill")
		}
	}
	function search_prompt() {
		if (!searching) {
			var term = prompt("Enter a search term (regexp " +
			    "allowed, eg: ^ext4_)"
			    + (ignorecase ? ", ignoring case" : "")
			    + "\nPress Ctrl-i to toggle case sensitivity", "");
			if (term != null) {
				currentSearchTerm = term;
				search();
			}
		} else {
			reset_search();
			searching = 0;
			currentSearchTerm = null;
			searchbtn.classList.remove("show");
			searchbtn.firstChild.nodeValue = "Search"
			matchedtxt.classList.add("hide");
			matchedtxt.firstChild.nodeValue = ""
		}
	}
	function search(term) {
		if (currentSearchTerm === null) return;
		var term = currentSearchTerm;

		var re = new RegExp(term, ignorecase ? 'i' : '');
		var el = document.getElementById("frames").children;
		var matches = new Object();
		var maxwidth = 0;
		for (var i = 0; i < el.length; i++) {
			var e = el[i];
			var func = g_to_func(e);
			var rect = find_child(e, "rect");
			if (func == null || rect == null)
				continue;

			// Save max width. Only works as we have a root frame
			var w = parseFloat(rect.attributes.width.value);
			if (w > maxwidth)
				maxwidth = w;

			if (func.match(re)) {
				// highlight
				var x = parseFloat(rect.attributes.x.value);
				orig_save(rect, "fill");
				rect.attributes.fill.value = "rgb(230,0,230)";

				// remember matches
				if (matches[x] == undefined) {
					matches[x] = w;
				} else {
					if (w > matches[x]) {
						// overwrite with parent
						matches[x] = w;
					}
				}
				searching = 1;
			}
		}
		if (!searching)
			return;

		searchbtn.classList.add("show");
		searchbtn.firstChild.nodeValue = "Reset Search";

		// calculate percent matched, excluding vertical overlap
		var count = 0;
		var lastx = -1;
		var lastw = 0;
		var keys = Array();
		for (k in matches) {
			if (matches.hasOwnProperty(k))
				keys.push(k);
		}
		// sort the matched frames by their x location
		// ascending, then width descending
		keys.sort(function(a, b){
			return a - b;
		});
		// Step through frames saving only the biggest bottom-up frames
		// thanks to the sort order. This relies on the tree property
		// where children are always smaller than their parents.
		var fudge = 0.0001;	// JavaScript floating point
		for (var k in keys) {
			var x = parseFloat(keys[k]);
			var w = matches[keys[k]];
			if (x >= lastx + lastw - fudge) {
				count += w;
				lastx = x;
				lastw = w;
			}
		}
		// display matched percent
		matchedtxt.classList.remove("hide");
		var pct = 100 * count / maxwidth;
		if (pct != 100) pct = pct.toFixed(1)
		matchedtxt.firstChild.nodeValue = "Matched: " + pct + "%";
	}
]]>
</script>
<rect x="0.0" y="0" width="1200.0" height="326.0" fill="url(#background)"  />
<text id="title" x="600.00" y="24" >Flame Graph</text>
<text id="details" x="10.00" y="309" > </text>
<text id="unzoom" x="10.00" y="24" class="hide">Reset Zoom</text>
<text id="search" x="1090.00" y="24" >Search</text>
<text id="ignorecase" x="1174.00" y="24" >ic</text>
<text id="matched" x="1090.00" y="309" > </text>
<g id="frames">
<g >
<title>std::__detail::_Equal_helper&lt;PageId, (3 samples, 2.91%)</title><rect x="869.2" y="117" width="34.4" height="15.0" fill="rgb(216,47,50)" rx="2" ry="2" />
<text  x="872.22" y="127.5" >st..</text>
</g>
<g >
<title>PageId::PageId (1 samples, 0.97%)</title><rect x="10.0" y="165" width="11.5" height="15.0" fill="rgb(205,136,37)" rx="2" ry="2" />
<text  x="13.00" y="175.5" ></text>
</g>
<g >
<title>pageRankComputationWithNetwork (20 samples, 19.42%)</title><rect x="960.9" y="245" width="229.1" height="15.0" fill="rgb(208,82,26)" rx="2" ry="2" />
<text  x="963.87" y="255.5" >pageRankComputationWithNetwork</text>
</g>
<g >
<title>__GI___wait4 (3 samples, 2.91%)</title><rect x="55.8" y="101" width="34.4" height="15.0" fill="rgb(224,144,28)" rx="2" ry="2" />
<text  x="58.83" y="111.5" >__..</text>
</g>
<g >
<title>__lll_lock_wait_private (1 samples, 0.97%)</title><rect x="113.1" y="133" width="11.5" height="15.0" fill="rgb(239,143,7)" rx="2" ry="2" />
<text  x="116.11" y="143.5" ></text>
</g>
<g >
<title>MultiThreadedPageRankComputer::WorkerData::work (80 samples, 77.67%)</title><rect x="10.0" y="213" width="916.5" height="15.0" fill="rgb(220,1,53)" rx="2" ry="2" />
<text  x="13.00" y="223.5" >MultiThreadedPageRankComputer::WorkerData::work</text>
</g>
<g >
<title>std::__relocate_a&lt;PageId*, (1 samples, 0.97%)</title><rect x="926.5" y="149" width="11.5" height="15.0" fill="rgb(253,25,2)" rx="2" ry="2" />
<text  x="929.50" y="159.5" ></text>
</g>
<g >
<title>std::__relocate_object_a&lt;PageId, (1 samples, 0.97%)</title><rect x="926.5" y="117" width="11.5" height="15.0" fill="rgb(217,123,52)" rx="2" ry="2" />
<text  x="929.50" y="127.5" ></text>
</g>
<g >
<title>__GI__IO_getline (55 samples, 53.40%)</title><rect x="204.8" y="133" width="630.1" height="15.0" fill="rgb(210,164,39)" rx="2" ry="2" />
<text  x="207.76" y="143.5" >__GI__IO_getline</text>
</g>
<g >
<title>fgets (55 samples, 53.40%)</title><rect x="204.8" y="165" width="630.1" height="15.0" fill="rgb(222,129,45)" rx="2" ry="2" />
<text  x="207.76" y="175.5" >fgets</text>
</g>
<g >
<title>__GI__IO_default_uflow (55 samples, 53.40%)</title><rect x="204.8" y="101" width="630.1" height="15.0" fill="rgb(210,99,47)" rx="2" ry="2" />
<text  x="207.76" y="111.5" >__GI__IO_default_uflow</text>
</g>
<g >
<title>__pthread_cond_wait (3 samples, 2.91%)</title><rect x="21.5" y="149" width="34.3" height="15.0" fill="rgb(216,138,45)" rx="2" ry="2" />
<text  x="24.46" y="159.5" >__..</text>
</g>
<g >
<title>std::__cxx11::basic_string&lt;char, (1 samples, 0.97%)</title><rect x="10.0" y="149" width="11.5" height="15.0" fill="rgb(223,87,29)" rx="2" ry="2" />
<text  x="13.00" y="159.5" ></text>
</g>
<g >
<title>std::__detail::_Hash_code_base&lt;PageId, (1 samples, 0.97%)</title><rect x="903.6" y="149" width="11.4" height="15.0" fill="rgb(221,229,38)" rx="2" ry="2" />
<text  x="906.59" y="159.5" ></text>
</g>
<g >
<title>clone (80 samples, 77.67%)</title><rect x="10.0" y="261" width="916.5" height="15.0" fill="rgb(225,117,13)" rx="2" ry="2" />
<text  x="13.00" y="271.5" >clone</text>
</g>
<g >
<title>__spawnix (7 samples, 6.80%)</title><rect x="124.6" y="85" width="80.2" height="15.0" fill="rgb(234,105,43)" rx="2" ry="2" />
<text  x="127.56" y="95.5" >__spawnix</text>
</g>
<g >
<title>Page::getId (1 samples, 0.97%)</title><rect x="10.0" y="181" width="11.5" height="15.0" fill="rgb(214,173,0)" rx="2" ry="2" />
<text  x="13.00" y="191.5" ></text>
</g>
<g >
<title>std::__cxx11::basic_string&lt;char, (1 samples, 0.97%)</title><rect x="10.0" y="117" width="11.5" height="15.0" fill="rgb(228,182,7)" rx="2" ry="2" />
<text  x="13.00" y="127.5" ></text>
</g>
<g >
<title>_IO_new_file_underflow (1 samples, 0.97%)</title><rect x="949.4" y="165" width="11.5" height="15.0" fill="rgb(242,136,27)" rx="2" ry="2" />
<text  x="952.42" y="175.5" ></text>
</g>
<g >
<title>operator (1 samples, 0.97%)</title><rect x="10.0" y="85" width="11.5" height="15.0" fill="rgb(227,221,54)" rx="2" ry="2" />
<text  x="13.00" y="95.5" ></text>
</g>
<g >
<title>__GI___libc_malloc (1 samples, 0.97%)</title><rect x="10.0" y="69" width="11.5" height="15.0" fill="rgb(224,189,18)" rx="2" ry="2" />
<text  x="13.00" y="79.5" ></text>
</g>
<g >
<title>std::_Hash_bytes(void (1 samples, 0.97%)</title><rect x="915.0" y="101" width="11.5" height="15.0" fill="rgb(207,163,18)" rx="2" ry="2" />
<text  x="918.05" y="111.5" ></text>
</g>
<g >
<title>std::_Hashtable&lt;PageId, (5 samples, 4.85%)</title><rect x="857.8" y="165" width="57.2" height="15.0" fill="rgb(217,210,31)" rx="2" ry="2" />
<text  x="860.77" y="175.5" >std::_..</text>
</g>
<g >
<title>MultiThreadedPageRankComputer::computeForNetwork (20 samples, 19.42%)</title><rect x="960.9" y="229" width="229.1" height="15.0" fill="rgb(232,70,35)" rx="2" ry="2" />
<text  x="963.87" y="239.5" >MultiThreadedPageRankComputer:..</text>
</g>
<g >
<title>std::vector&lt;PageId, (1 samples, 0.97%)</title><rect x="926.5" y="197" width="11.5" height="15.0" fill="rgb(217,101,51)" rx="2" ry="2" />
<text  x="929.50" y="207.5" ></text>
</g>
<g >
<title>std::__cxx11::basic_string&lt;char, (2 samples, 1.94%)</title><rect x="834.9" y="85" width="22.9" height="15.0" fill="rgb(212,153,30)" rx="2" ry="2" />
<text  x="837.85" y="95.5" >s..</text>
</g>
<g >
<title>std::vector&lt;PageId, (1 samples, 0.97%)</title><rect x="926.5" y="213" width="11.5" height="15.0" fill="rgb(242,29,26)" rx="2" ry="2" />
<text  x="929.50" y="223.5" ></text>
</g>
<g >
<title>__GI___posix_spawn (7 samples, 6.80%)</title><rect x="124.6" y="117" width="80.2" height="15.0" fill="rgb(221,217,46)" rx="2" ry="2" />
<text  x="127.56" y="127.5" >__GI___po..</text>
</g>
<g >
<title>?? (80 samples, 77.67%)</title><rect x="10.0" y="229" width="916.5" height="15.0" fill="rgb(230,150,34)" rx="2" ry="2" />
<text  x="13.00" y="239.5" >??</text>
</g>
<g >
<title>_IO_new_popen (8 samples, 7.77%)</title><rect x="113.1" y="165" width="91.7" height="15.0" fill="rgb(226,86,19)" rx="2" ry="2" />
<text  x="116.11" y="175.5" >_IO_new_po..</text>
</g>
<g >
<title>main (23 samples, 22.33%)</title><rect x="926.5" y="261" width="263.5" height="15.0" fill="rgb(215,33,39)" rx="2" ry="2" />
<text  x="929.50" y="271.5" >main</text>
</g>
<g >
<title>std::char_traits&lt;char&gt;::copy (2 samples, 1.94%)</title><rect x="834.9" y="69" width="22.9" height="15.0" fill="rgb(246,35,33)" rx="2" ry="2" />
<text  x="837.85" y="79.5" >s..</text>
</g>
<g >
<title>__GI__IO_getline_info (55 samples, 53.40%)</title><rect x="204.8" y="117" width="630.1" height="15.0" fill="rgb(253,124,45)" rx="2" ry="2" />
<text  x="207.76" y="127.5" >__GI__IO_getline_info</text>
</g>
<g >
<title>std::condition_variable::wait&lt;MultiThreadedPageRankComputer::WorkerData::wait()::{lambda()#1}&gt;(std::unique_lock&lt;std::mutex&gt;&amp;, (3 samples, 2.91%)</title><rect x="21.5" y="181" width="34.3" height="15.0" fill="rgb(213,109,3)" rx="2" ry="2" />
<text  x="24.46" y="191.5" >st..</text>
</g>
<g >
<title>std::equal_to&lt;PageId&gt;::operator() (1 samples, 0.97%)</title><rect x="892.1" y="101" width="11.5" height="15.0" fill="rgb(219,182,9)" rx="2" ry="2" />
<text  x="895.14" y="111.5" ></text>
</g>
<g >
<title>std::__detail::_Map_base&lt;PageId, (6 samples, 5.83%)</title><rect x="857.8" y="181" width="68.7" height="15.0" fill="rgb(214,35,12)" rx="2" ry="2" />
<text  x="860.77" y="191.5" >std::__..</text>
</g>
<g >
<title>__gnu_cxx::new_allocator&lt;PageId&gt;::construct&lt;PageId, (1 samples, 0.97%)</title><rect x="926.5" y="85" width="11.5" height="15.0" fill="rgb(228,120,23)" rx="2" ry="2" />
<text  x="929.50" y="95.5" ></text>
</g>
<g >
<title>_IO_fgets (55 samples, 53.40%)</title><rect x="204.8" y="149" width="630.1" height="15.0" fill="rgb(205,173,7)" rx="2" ry="2" />
<text  x="207.76" y="159.5" >_IO_fgets</text>
</g>
<g >
<title>Sha256IdGenerator::generateId (68 samples, 66.02%)</title><rect x="55.8" y="181" width="779.1" height="15.0" fill="rgb(223,223,27)" rx="2" ry="2" />
<text  x="58.83" y="191.5" >Sha256IdGenerator::generateId</text>
</g>
<g >
<title>std::__cxx11::basic_string&lt;char, (1 samples, 0.97%)</title><rect x="10.0" y="101" width="11.5" height="15.0" fill="rgb(214,229,16)" rx="2" ry="2" />
<text  x="13.00" y="111.5" ></text>
</g>
<g >
<title>std::vector&lt;PageId, (1 samples, 0.97%)</title><rect x="926.5" y="181" width="11.5" height="15.0" fill="rgb(207,225,34)" rx="2" ry="2" />
<text  x="929.50" y="191.5" ></text>
</g>
<g >
<title>__pthread_clockjoin_ex (20 samples, 19.42%)</title><rect x="960.9" y="197" width="229.1" height="15.0" fill="rgb(227,82,2)" rx="2" ry="2" />
<text  x="963.87" y="207.5" >__pthread_clockjoin_ex</text>
</g>
<g >
<title>__GI___libc_read (55 samples, 53.40%)</title><rect x="204.8" y="53" width="630.1" height="15.0" fill="rgb(243,223,20)" rx="2" ry="2" />
<text  x="207.76" y="63.5" >__GI___libc_read</text>
</g>
<g >
<title>MultiThreadedPageRankComputer::WorkerData::initContainersSequential (1 samples, 0.97%)</title><rect x="10.0" y="197" width="11.5" height="15.0" fill="rgb(207,188,37)" rx="2" ry="2" />
<text  x="13.00" y="207.5" ></text>
</g>
<g >
<title>std::_Hashtable&lt;PageId, (4 samples, 3.88%)</title><rect x="857.8" y="149" width="45.8" height="15.0" fill="rgb(210,209,39)" rx="2" ry="2" />
<text  x="860.77" y="159.5" >std:..</text>
</g>
<g >
<title>__GI__IO_default_uflow (1 samples, 0.97%)</title><rect x="949.4" y="181" width="11.5" height="15.0" fill="rgb(245,2,39)" rx="2" ry="2" />
<text  x="952.42" y="191.5" ></text>
</g>
<g >
<title>std::basic_istream&lt;char, (2 samples, 1.94%)</title><rect x="938.0" y="213" width="22.9" height="15.0" fill="rgb(213,151,36)" rx="2" ry="2" />
<text  x="940.96" y="223.5" >s..</text>
</g>
<g >
<title>Page::addLink (1 samples, 0.97%)</title><rect x="926.5" y="229" width="11.5" height="15.0" fill="rgb(239,134,37)" rx="2" ry="2" />
<text  x="929.50" y="239.5" ></text>
</g>
<g >
<title>std::__detail::_Hashtable_base&lt;PageId, (3 samples, 2.91%)</title><rect x="869.2" y="133" width="34.4" height="15.0" fill="rgb(234,116,19)" rx="2" ry="2" />
<text  x="872.22" y="143.5" >st..</text>
</g>
<g >
<title>PageIdHash::operator() (1 samples, 0.97%)</title><rect x="915.0" y="149" width="11.5" height="15.0" fill="rgb(237,65,8)" rx="2" ry="2" />
<text  x="918.05" y="159.5" ></text>
</g>
<g >
<title>std::__cxx11::basic_string&lt;char, (2 samples, 1.94%)</title><rect x="834.9" y="133" width="22.9" height="15.0" fill="rgb(249,6,36)" rx="2" ry="2" />
<text  x="837.85" y="143.5" >s..</text>
</g>
<g >
<title>_int_malloc (1 samples, 0.97%)</title><rect x="10.0" y="53" width="11.5" height="15.0" fill="rgb(221,157,34)" rx="2" ry="2" />
<text  x="13.00" y="63.5" ></text>
</g>
<g >
<title>Page::generateId (68 samples, 66.02%)</title><rect x="55.8" y="197" width="779.1" height="15.0" fill="rgb(250,167,48)" rx="2" ry="2" />
<text  x="58.83" y="207.5" >Page::generateId</text>
</g>
<g >
<title>std::getline&lt;char, (2 samples, 1.94%)</title><rect x="938.0" y="229" width="22.9" height="15.0" fill="rgb(229,144,26)" rx="2" ry="2" />
<text  x="940.96" y="239.5" >s..</text>
</g>
<g >
<title>__lll_lock_wait_private (2 samples, 1.94%)</title><rect x="90.2" y="117" width="22.9" height="15.0" fill="rgb(221,137,37)" rx="2" ry="2" />
<text  x="93.19" y="127.5" >_..</text>
</g>
<g >
<title>__GI___waitpid (3 samples, 2.91%)</title><rect x="55.8" y="117" width="34.4" height="15.0" fill="rgb(210,146,3)" rx="2" ry="2" />
<text  x="58.83" y="127.5" >__..</text>
</g>
<g >
<title>__GI___libc_read (55 samples, 53.40%)</title><rect x="204.8" y="69" width="630.1" height="15.0" fill="rgb(247,43,2)" rx="2" ry="2" />
<text  x="207.76" y="79.5" >__GI___libc_read</text>
</g>
<g >
<title>std::condition_variable::wait(std::unique_lock&lt;std::mutex&gt;&amp;) (3 samples, 2.91%)</title><rect x="21.5" y="165" width="34.3" height="15.0" fill="rgb(243,183,31)" rx="2" ry="2" />
<text  x="24.46" y="175.5" >st..</text>
</g>
<g >
<title>std::__cxx11::basic_string&lt;char, (1 samples, 0.97%)</title><rect x="10.0" y="133" width="11.5" height="15.0" fill="rgb(227,44,13)" rx="2" ry="2" />
<text  x="13.00" y="143.5" ></text>
</g>
<g >
<title>PageId::PageId (2 samples, 1.94%)</title><rect x="834.9" y="197" width="22.9" height="15.0" fill="rgb(226,204,24)" rx="2" ry="2" />
<text  x="837.85" y="207.5" >P..</text>
</g>
<g >
<title>all (103 samples, 100%)</title><rect x="10.0" y="277" width="1180.0" height="15.0" fill="rgb(245,63,0)" rx="2" ry="2" />
<text  x="13.00" y="287.5" ></text>
</g>
<g >
<title>std::operator==&lt;char&gt; (1 samples, 0.97%)</title><rect x="892.1" y="69" width="11.5" height="15.0" fill="rgb(230,16,7)" rx="2" ry="2" />
<text  x="895.14" y="79.5" ></text>
</g>
<g >
<title>_IO_new_proc_close (5 samples, 4.85%)</title><rect x="55.8" y="133" width="57.3" height="15.0" fill="rgb(236,183,40)" rx="2" ry="2" />
<text  x="58.83" y="143.5" >_IO_ne..</text>
</g>
<g >
<title>std::_Hash_impl::hash (1 samples, 0.97%)</title><rect x="915.0" y="117" width="11.5" height="15.0" fill="rgb(247,98,11)" rx="2" ry="2" />
<text  x="918.05" y="127.5" ></text>
</g>
<g >
<title>__memmove_avx_unaligned (2 samples, 1.94%)</title><rect x="834.9" y="53" width="22.9" height="15.0" fill="rgb(230,35,43)" rx="2" ry="2" />
<text  x="837.85" y="63.5" >_..</text>
</g>
<g >
<title>start_thread (80 samples, 77.67%)</title><rect x="10.0" y="245" width="916.5" height="15.0" fill="rgb(252,76,26)" rx="2" ry="2" />
<text  x="13.00" y="255.5" >start_thread</text>
</g>
<g >
<title>std::__cxx11::basic_string&lt;char, (2 samples, 1.94%)</title><rect x="834.9" y="101" width="22.9" height="15.0" fill="rgb(209,111,4)" rx="2" ry="2" />
<text  x="837.85" y="111.5" >s..</text>
</g>
<g >
<title>__pthread_cond_wait_common (3 samples, 2.91%)</title><rect x="21.5" y="133" width="34.3" height="15.0" fill="rgb(212,124,45)" rx="2" ry="2" />
<text  x="24.46" y="143.5" >__..</text>
</g>
<g >
<title>_IO_new_fclose (5 samples, 4.85%)</title><rect x="55.8" y="165" width="57.3" height="15.0" fill="rgb(238,100,1)" rx="2" ry="2" />
<text  x="58.83" y="175.5" >_IO_ne..</text>
</g>
<g >
<title>std::vector&lt;PageId, (1 samples, 0.97%)</title><rect x="926.5" y="165" width="11.5" height="15.0" fill="rgb(251,118,1)" rx="2" ry="2" />
<text  x="929.50" y="175.5" ></text>
</g>
<g >
<title>MultiThreadedPageRankComputer::WorkerData::wait (3 samples, 2.91%)</title><rect x="21.5" y="197" width="34.3" height="15.0" fill="rgb(205,198,28)" rx="2" ry="2" />
<text  x="24.46" y="207.5" >Mu..</text>
</g>
<g >
<title>std::allocator_traits&lt;std::allocator&lt;PageId&gt; (1 samples, 0.97%)</title><rect x="926.5" y="101" width="11.5" height="15.0" fill="rgb(232,48,11)" rx="2" ry="2" />
<text  x="929.50" y="111.5" ></text>
</g>
<g >
<title>__spawni (7 samples, 6.80%)</title><rect x="124.6" y="101" width="80.2" height="15.0" fill="rgb(254,8,8)" rx="2" ry="2" />
<text  x="127.56" y="111.5" >__spawni</text>
</g>
<g >
<title>_IO_new_file_close_it (5 samples, 4.85%)</title><rect x="55.8" y="149" width="57.3" height="15.0" fill="rgb(211,147,1)" rx="2" ry="2" />
<text  x="58.83" y="159.5" >_IO_ne..</text>
</g>
<g >
<title>std::__relocate_a_1&lt;PageId*, (1 samples, 0.97%)</title><rect x="926.5" y="133" width="11.5" height="15.0" fill="rgb(222,53,20)" rx="2" ry="2" />
<text  x="929.50" y="143.5" ></text>
</g>
<g >
<title>std::unordered_map&lt;PageId, (6 samples, 5.83%)</title><rect x="857.8" y="197" width="68.7" height="15.0" fill="rgb(237,154,4)" rx="2" ry="2" />
<text  x="860.77" y="207.5" >std::un..</text>
</g>
<g >
<title>std::hash&lt;std::__cxx11::basic_string&lt;char, (1 samples, 0.97%)</title><rect x="915.0" y="133" width="11.5" height="15.0" fill="rgb(244,211,42)" rx="2" ry="2" />
<text  x="918.05" y="143.5" ></text>
</g>
<g >
<title>_IO_new_proc_open (8 samples, 7.77%)</title><rect x="113.1" y="149" width="91.7" height="15.0" fill="rgb(216,4,29)" rx="2" ry="2" />
<text  x="116.11" y="159.5" >_IO_new_pr..</text>
</g>
<g >
<title>sysmalloc (1 samples, 0.97%)</title><rect x="10.0" y="37" width="11.5" height="15.0" fill="rgb(248,25,50)" rx="2" ry="2" />
<text  x="13.00" y="47.5" ></text>
</g>
<g >
<title>std::thread::join() (20 samples, 19.42%)</title><rect x="960.9" y="213" width="229.1" height="15.0" fill="rgb(231,186,24)" rx="2" ry="2" />
<text  x="963.87" y="223.5" >std::thread::join()</text>
</g>
<g >
<title>std::__cxx11::basic_string&lt;char, (2 samples, 1.94%)</title><rect x="834.9" y="149" width="22.9" height="15.0" fill="rgb(247,198,28)" rx="2" ry="2" />
<text  x="837.85" y="159.5" >s..</text>
</g>
<g >
<title>std::__detail::_Mod_range_hashing::operator() (1 samples, 0.97%)</title><rect x="903.6" y="133" width="11.4" height="15.0" fill="rgb(216,47,10)" rx="2" ry="2" />
<text  x="906.59" y="143.5" ></text>
</g>
<g >
<title>futex_wait_cancelable (3 samples, 2.91%)</title><rect x="21.5" y="117" width="34.3" height="15.0" fill="rgb(250,221,47)" rx="2" ry="2" />
<text  x="24.46" y="127.5" >fu..</text>
</g>
<g >
<title>std::__cxx11::basic_string&lt;char, (2 samples, 1.94%)</title><rect x="834.9" y="165" width="22.9" height="15.0" fill="rgb(210,228,31)" rx="2" ry="2" />
<text  x="837.85" y="175.5" >s..</text>
</g>
<g >
<title>_IO_new_file_underflow (55 samples, 53.40%)</title><rect x="204.8" y="85" width="630.1" height="15.0" fill="rgb(214,41,28)" rx="2" ry="2" />
<text  x="207.76" y="95.5" >_IO_new_file_underflow</text>
</g>
<g >
<title>std::__cxx11::basic_string&lt;char, (1 samples, 0.97%)</title><rect x="926.5" y="53" width="11.5" height="15.0" fill="rgb(219,100,22)" rx="2" ry="2" />
<text  x="929.50" y="63.5" ></text>
</g>
<g >
<title>PageId::PageId (1 samples, 0.97%)</title><rect x="926.5" y="69" width="11.5" height="15.0" fill="rgb(228,91,16)" rx="2" ry="2" />
<text  x="929.50" y="79.5" ></text>
</g>
<g >
<title>__GI___libc_read (1 samples, 0.97%)</title><rect x="949.4" y="149" width="11.5" height="15.0" fill="rgb(220,194,51)" rx="2" ry="2" />
<text  x="952.42" y="159.5" ></text>
</g>
<g >
<title>std::__detail::_Hash_code_base&lt;PageId, (1 samples, 0.97%)</title><rect x="915.0" y="165" width="11.5" height="15.0" fill="rgb(236,112,51)" rx="2" ry="2" />
<text  x="918.05" y="175.5" ></text>
</g>
<g >
<title>std::__cxx11::basic_string&lt;char, (2 samples, 1.94%)</title><rect x="834.9" y="181" width="22.9" height="15.0" fill="rgb(230,74,36)" rx="2" ry="2" />
<text  x="837.85" y="191.5" >s..</text>
</g>
<g >
<title>StdinGenerator::generateNetworkOfSize (3 samples, 2.91%)</title><rect x="926.5" y="245" width="34.4" height="15.0" fill="rgb(212,56,10)" rx="2" ry="2" />
<text  x="929.50" y="255.5" >St..</text>
</g>
<g >
<title>__gnu_cxx::stdio_sync_filebuf&lt;char, (1 samples, 0.97%)</title><rect x="949.4" y="197" width="11.5" height="15.0" fill="rgb(247,182,30)" rx="2" ry="2" />
<text  x="952.42" y="207.5" ></text>
</g>
<g >
<title>clone (6 samples, 5.83%)</title><rect x="136.0" y="69" width="68.8" height="15.0" fill="rgb(238,1,14)" rx="2" ry="2" />
<text  x="139.02" y="79.5" >clone</text>
</g>
<g >
<title>std::__cxx11::basic_string&lt;char, (2 samples, 1.94%)</title><rect x="834.9" y="117" width="22.9" height="15.0" fill="rgb(210,77,19)" rx="2" ry="2" />
<text  x="837.85" y="127.5" >s..</text>
</g>
<g >
<title>std::__cxx11::basic_string&lt;char, (1 samples, 0.97%)</title><rect x="926.5" y="37" width="11.5" height="15.0" fill="rgb(236,40,47)" rx="2" ry="2" />
<text  x="929.50" y="47.5" ></text>
</g>
<g >
<title>PageId::operator== (1 samples, 0.97%)</title><rect x="892.1" y="85" width="11.5" height="15.0" fill="rgb(212,110,47)" rx="2" ry="2" />
<text  x="895.14" y="95.5" ></text>
</g>
<g >
<title>spawn_process (7 samples, 6.80%)</title><rect x="124.6" y="133" width="80.2" height="15.0" fill="rgb(239,96,39)" rx="2" ry="2" />
<text  x="127.56" y="143.5" >spawn_pro..</text>
</g>
</g>
</svg>
