<?xml version="1.0" standalone="no"?>
<!DOCTYPE svg PUBLIC "-//W3C//DTD SVG 1.1//EN" "http://www.w3.org/Graphics/SVG/1.1/DTD/svg11.dtd">
<svg version="1.1" width="1200" height="422" onload="init(evt)" viewBox="0 0 1200 422" xmlns="http://www.w3.org/2000/svg" xmlns:xlink="http://www.w3.org/1999/xlink">
<!-- Flame graph stack visualization. See https://github.com/brendangregg/FlameGraph for latest version, and http://www.brendangregg.com/flamegraphs.html for examples. -->
<!-- NOTES:  -->
<defs>
	<linearGradient id="background" y1="0" y2="1" x1="0" x2="0" >
		<stop stop-color="#eeeeee" offset="5%" />
		<stop stop-color="#eeeeb0" offset="95%" />
	</linearGradient>
</defs>
<style type="text/css">
	text { font-family:Verdana; font-size:12px; fill:rgb(0,0,0); }
	#search, #ignorecase { opacity:0.1; cursor:pointer; }
	#search:hover, #search.show, #ignorecase:hover, #ignorecase.show { opacity:1; }
	#subtitle { text-anchor:middle; font-color:rgb(160,160,160); }
	#title { text-anchor:middle; font-size:17px}
	#unzoom { cursor:pointer; }
	#frames > *:hover { stroke:black; stroke-width:0.5; cursor:pointer; }
	.hide { display:none; }
	.parent { opacity:0.5; }
</style>
<script type="text/ecmascript">
<![CDATA[
	"use strict";
	var details, searchbtn, unzoombtn, matchedtxt, svg, searching, currentSearchTerm, ignorecase, ignorecaseBtn;
	function init(evt) {
		details = document.getElementById("details").firstChild;
		searchbtn = document.getElementById("search");
		ignorecaseBtn = document.getElementById("ignorecase");
		unzoombtn = document.getElementById("unzoom");
		matchedtxt = document.getElementById("matched");
		svg = document.getElementsByTagName("svg")[0];
		searching = 0;
		currentSearchTerm = null;
	}

	window.addEventListener("click", function(e) {
		var target = find_group(e.target);
		if (target) {
			if (target.nodeName == "a") {
				if (e.ctrlKey === false) return;
				e.preventDefault();
			}
			if (target.classList.contains("parent")) unzoom();
			zoom(target);
		}
		else if (e.target.id == "unzoom") unzoom();
		else if (e.target.id == "search") search_prompt();
		else if (e.target.id == "ignorecase") toggle_ignorecase();
	}, false)

	// mouse-over for info
	// show
	window.addEventListener("mouseover", function(e) {
		var target = find_group(e.target);
		if (target) details.nodeValue = "Function: " + g_to_text(target);
	}, false)

	// clear
	window.addEventListener("mouseout", function(e) {
		var target = find_group(e.target);
		if (target) details.nodeValue = ' ';
	}, false)

	// ctrl-F for search
	window.addEventListener("keydown",function (e) {
		if (e.keyCode === 114 || (e.ctrlKey && e.keyCode === 70)) {
			e.preventDefault();
			search_prompt();
		}
	}, false)

	// ctrl-I to toggle case-sensitive search
	window.addEventListener("keydown",function (e) {
		if (e.ctrlKey && e.keyCode === 73) {
			e.preventDefault();
			toggle_ignorecase();
		}
	}, false)

	// functions
	function find_child(node, selector) {
		var children = node.querySelectorAll(selector);
		if (children.length) return children[0];
		return;
	}
	function find_group(node) {
		var parent = node.parentElement;
		if (!parent) return;
		if (parent.id == "frames") return node;
		return find_group(parent);
	}
	function orig_save(e, attr, val) {
		if (e.attributes["_orig_" + attr] != undefined) return;
		if (e.attributes[attr] == undefined) return;
		if (val == undefined) val = e.attributes[attr].value;
		e.setAttribute("_orig_" + attr, val);
	}
	function orig_load(e, attr) {
		if (e.attributes["_orig_"+attr] == undefined) return;
		e.attributes[attr].value = e.attributes["_orig_" + attr].value;
		e.removeAttribute("_orig_"+attr);
	}
	function g_to_text(e) {
		var text = find_child(e, "title").firstChild.nodeValue;
		return (text)
	}
	function g_to_func(e) {
		var func = g_to_text(e);
		// if there's any manipulation we want to do to the function
		// name before it's searched, do it here before returning.
		return (func);
	}
	function update_text(e) {
		var r = find_child(e, "rect");
		var t = find_child(e, "text");
		var w = parseFloat(r.attributes.width.value) -3;
		var txt = find_child(e, "title").textContent.replace(/\([^(]*\)$/,"");
		t.attributes.x.value = parseFloat(r.attributes.x.value) + 3;

		// Smaller than this size won't fit anything
		if (w < 2 * 12 * 0.59) {
			t.textContent = "";
			return;
		}

		t.textContent = txt;
		// Fit in full text width
		if (/^ *$/.test(txt) || t.getSubStringLength(0, txt.length) < w)
			return;

		for (var x = txt.length - 2; x > 0; x--) {
			if (t.getSubStringLength(0, x + 2) <= w) {
				t.textContent = txt.substring(0, x) + "..";
				return;
			}
		}
		t.textContent = "";
	}

	// zoom
	function zoom_reset(e) {
		if (e.attributes != undefined) {
			orig_load(e, "x");
			orig_load(e, "width");
		}
		if (e.childNodes == undefined) return;
		for (var i = 0, c = e.childNodes; i < c.length; i++) {
			zoom_reset(c[i]);
		}
	}
	function zoom_child(e, x, ratio) {
		if (e.attributes != undefined) {
			if (e.attributes.x != undefined) {
				orig_save(e, "x");
				e.attributes.x.value = (parseFloat(e.attributes.x.value) - x - 10) * ratio + 10;
				if (e.tagName == "text")
					e.attributes.x.value = find_child(e.parentNode, "rect[x]").attributes.x.value + 3;
			}
			if (e.attributes.width != undefined) {
				orig_save(e, "width");
				e.attributes.width.value = parseFloat(e.attributes.width.value) * ratio;
			}
		}

		if (e.childNodes == undefined) return;
		for (var i = 0, c = e.childNodes; i < c.length; i++) {
			zoom_child(c[i], x - 10, ratio);
		}
	}
	function zoom_parent(e) {
		if (e.attributes) {
			if (e.attributes.x != undefined) {
				orig_save(e, "x");
				e.attributes.x.value = 10;
			}
			if (e.attributes.width != undefined) {
				orig_save(e, "width");
				e.attributes.width.value = parseInt(svg.width.baseVal.value) - (10 * 2);
			}
		}
		if (e.childNodes == undefined) return;
		for (var i = 0, c = e.childNodes; i < c.length; i++) {
			zoom_parent(c[i]);
		}
	}
	function zoom(node) {
		var attr = find_child(node, "rect").attributes;
		var width = parseFloat(attr.width.value);
		var xmin = parseFloat(attr.x.value);
		var xmax = parseFloat(xmin + width);
		var ymin = parseFloat(attr.y.value);
		var ratio = (svg.width.baseVal.value - 2 * 10) / width;

		// XXX: Workaround for JavaScript float issues (fix me)
		var fudge = 0.0001;

		unzoombtn.classList.remove("hide");

		var el = document.getElementById("frames").children;
		for (var i = 0; i < el.length; i++) {
			var e = el[i];
			var a = find_child(e, "rect").attributes;
			var ex = parseFloat(a.x.value);
			var ew = parseFloat(a.width.value);
			var upstack;
			// Is it an ancestor
			if (0 == 0) {
				upstack = parseFloat(a.y.value) > ymin;
			} else {
				upstack = parseFloat(a.y.value) < ymin;
			}
			if (upstack) {
				// Direct ancestor
				if (ex <= xmin && (ex+ew+fudge) >= xmax) {
					e.classList.add("parent");
					zoom_parent(e);
					update_text(e);
				}
				// not in current path
				else
					e.classList.add("hide");
			}
			// Children maybe
			else {
				// no common path
				if (ex < xmin || ex + fudge >= xmax) {
					e.classList.add("hide");
				}
				else {
					zoom_child(e, xmin, ratio);
					update_text(e);
				}
			}
		}
		search();
	}
	function unzoom() {
		unzoombtn.classList.add("hide");
		var el = document.getElementById("frames").children;
		for(var i = 0; i < el.length; i++) {
			el[i].classList.remove("parent");
			el[i].classList.remove("hide");
			zoom_reset(el[i]);
			update_text(el[i]);
		}
		search();
	}

	// search
	function toggle_ignorecase() {
		ignorecase = !ignorecase;
		if (ignorecase) {
			ignorecaseBtn.classList.add("show");
		} else {
			ignorecaseBtn.classList.remove("show");
		}
		reset_search();
		search();
	}
	function reset_search() {
		var el = document.querySelectorAll("#frames rect");
		for (var i = 0; i < el.length; i++) {
			orig_load(el[i], "fill")
		}
	}
	function search_prompt() {
		if (!searching) {
			var term = prompt("Enter a search term (regexp " +
			    "allowed, eg: ^ext4_)"
			    + (ignorecase ? ", ignoring case" : "")
			    + "\nPress Ctrl-i to toggle case sensitivity", "");
			if (term != null) {
				currentSearchTerm = term;
				search();
			}
		} else {
			reset_search();
			searching = 0;
			currentSearchTerm = null;
			searchbtn.classList.remove("show");
			searchbtn.firstChild.nodeValue = "Search"
			matchedtxt.classList.add("hide");
			matchedtxt.firstChild.nodeValue = ""
		}
	}
	function search(term) {
		if (currentSearchTerm === null) return;
		var term = currentSearchTerm;

		var re = new RegExp(term, ignorecase ? 'i' : '');
		var el = document.getElementById("frames").children;
		var matches = new Object();
		var maxwidth = 0;
		for (var i = 0; i < el.length; i++) {
			var e = el[i];
			var func = g_to_func(e);
			var rect = find_child(e, "rect");
			if (func == null || rect == null)
				continue;

			// Save max width. Only works as we have a root frame
			var w = parseFloat(rect.attributes.width.value);
			if (w > maxwidth)
				maxwidth = w;

			if (func.match(re)) {
				// highlight
				var x = parseFloat(rect.attributes.x.value);
				orig_save(rect, "fill");
				rect.attributes.fill.value = "rgb(230,0,230)";

				// remember matches
				if (matches[x] == undefined) {
					matches[x] = w;
				} else {
					if (w > matches[x]) {
						// overwrite with parent
						matches[x] = w;
					}
				}
				searching = 1;
			}
		}
		if (!searching)
			return;

		searchbtn.classList.add("show");
		searchbtn.firstChild.nodeValue = "Reset Search";

		// calculate percent matched, excluding vertical overlap
		var count = 0;
		var lastx = -1;
		var lastw = 0;
		var keys = Array();
		for (k in matches) {
			if (matches.hasOwnProperty(k))
				keys.push(k);
		}
		// sort the matched frames by their x location
		// ascending, then width descending
		keys.sort(function(a, b){
			return a - b;
		});
		// Step through frames saving only the biggest bottom-up frames
		// thanks to the sort order. This relies on the tree property
		// where children are always smaller than their parents.
		var fudge = 0.0001;	// JavaScript floating point
		for (var k in keys) {
			var x = parseFloat(keys[k]);
			var w = matches[keys[k]];
			if (x >= lastx + lastw - fudge) {
				count += w;
				lastx = x;
				lastw = w;
			}
		}
		// display matched percent
		matchedtxt.classList.remove("hide");
		var pct = 100 * count / maxwidth;
		if (pct != 100) pct = pct.toFixed(1)
		matchedtxt.firstChild.nodeValue = "Matched: " + pct + "%";
	}
]]>
</script>
<rect x="0.0" y="0" width="1200.0" height="422.0" fill="url(#background)"  />
<text id="title" x="600.00" y="24" >Flame Graph</text>
<text id="details" x="10.00" y="405" > </text>
<text id="unzoom" x="10.00" y="24" class="hide">Reset Zoom</text>
<text id="search" x="1090.00" y="24" >Search</text>
<text id="ignorecase" x="1174.00" y="24" >ic</text>
<text id="matched" x="1090.00" y="405" > </text>
<g id="frames">
<g >
<title>PageIdHash::operator() (1 samples, 1.05%)</title><rect x="22.4" y="133" width="12.4" height="15.0" fill="rgb(237,126,38)" rx="2" ry="2" />
<text  x="25.42" y="143.5" ></text>
</g>
<g >
<title>__GI__IO_default_uflow (20 samples, 21.05%)</title><rect x="34.8" y="117" width="248.5" height="15.0" fill="rgb(223,49,49)" rx="2" ry="2" />
<text  x="37.84" y="127.5" >__GI__IO_default_uflow</text>
</g>
<g >
<title>std::unordered_map&lt;PageId, (1 samples, 1.05%)</title><rect x="22.4" y="181" width="12.4" height="15.0" fill="rgb(222,78,3)" rx="2" ry="2" />
<text  x="25.42" y="191.5" ></text>
</g>
<g >
<title>MultiThreadedPageRankComputer::WorkerData::initRestSequential (2 samples, 2.11%)</title><rect x="10.0" y="197" width="24.8" height="15.0" fill="rgb(254,156,14)" rx="2" ry="2" />
<text  x="13.00" y="207.5" >M..</text>
</g>
<g >
<title>std::thread::_Invoker&lt;std::tuple&lt;MultiThreadedPageRankComputer::computeForNetwork(Network (45 samples, 47.37%)</title><rect x="10.0" y="277" width="558.9" height="15.0" fill="rgb(233,112,30)" rx="2" ry="2" />
<text  x="13.00" y="287.5" >std::thread::_Invoker&lt;std::tuple&lt;MultiThreadedPageRankComputer::computeForNe..</text>
</g>
<g >
<title>all (95 samples, 100%)</title><rect x="10.0" y="373" width="1180.0" height="15.0" fill="rgb(226,173,13)" rx="2" ry="2" />
<text  x="13.00" y="383.5" ></text>
</g>
<g >
<title>std::_Hash_impl::hash (1 samples, 1.05%)</title><rect x="22.4" y="101" width="12.4" height="15.0" fill="rgb(245,115,25)" rx="2" ry="2" />
<text  x="25.42" y="111.5" ></text>
</g>
<g >
<title>std::_Destroy&lt;PageId&gt; (1 samples, 1.05%)</title><rect x="568.9" y="165" width="12.5" height="15.0" fill="rgb(241,189,11)" rx="2" ry="2" />
<text  x="571.95" y="175.5" ></text>
</g>
<g >
<title>std::__detail::_Hash_node_value_base&lt;std::pair&lt;PageId (1 samples, 1.05%)</title><rect x="482.0" y="101" width="12.4" height="15.0" fill="rgb(217,104,5)" rx="2" ry="2" />
<text  x="485.00" y="111.5" ></text>
</g>
<g >
<title>std::__detail::_Map_base&lt;PageId, (12 samples, 12.63%)</title><rect x="419.9" y="181" width="149.0" height="15.0" fill="rgb(223,44,12)" rx="2" ry="2" />
<text  x="422.89" y="191.5" >std::__detail::_Map..</text>
</g>
<g >
<title>Sha256IdGenerator::generateId (25 samples, 26.32%)</title><rect x="34.8" y="181" width="310.6" height="15.0" fill="rgb(217,7,43)" rx="2" ry="2" />
<text  x="37.84" y="191.5" >Sha256IdGenerator::generateId</text>
</g>
<g >
<title>std::thread::_Invoker&lt;std::tuple&lt;MultiThreadedPageRankComputer::computeForNetwork(Network (45 samples, 47.37%)</title><rect x="10.0" y="293" width="558.9" height="15.0" fill="rgb(206,153,16)" rx="2" ry="2" />
<text  x="13.00" y="303.5" >std::thread::_Invoker&lt;std::tuple&lt;MultiThreadedPageRankComputer::computeForNe..</text>
</g>
<g >
<title>PageId::operator== (1 samples, 1.05%)</title><rect x="494.4" y="85" width="12.4" height="15.0" fill="rgb(227,73,11)" rx="2" ry="2" />
<text  x="497.42" y="95.5" ></text>
</g>
<g >
<title>clone (45 samples, 47.37%)</title><rect x="10.0" y="357" width="558.9" height="15.0" fill="rgb(240,178,31)" rx="2" ry="2" />
<text  x="13.00" y="367.5" >clone</text>
</g>
<g >
<title>__gnu_cxx::stdio_sync_filebuf&lt;char, (2 samples, 2.11%)</title><rect x="606.2" y="309" width="24.9" height="15.0" fill="rgb(238,175,27)" rx="2" ry="2" />
<text  x="609.21" y="319.5" >_..</text>
</g>
<g >
<title>std::_Destroy&lt;Page&gt; (1 samples, 1.05%)</title><rect x="568.9" y="261" width="12.5" height="15.0" fill="rgb(254,55,23)" rx="2" ry="2" />
<text  x="571.95" y="271.5" ></text>
</g>
<g >
<title>std::__detail::_Hashtable_base&lt;PageId, (1 samples, 1.05%)</title><rect x="506.8" y="117" width="12.5" height="15.0" fill="rgb(225,172,22)" rx="2" ry="2" />
<text  x="509.84" y="127.5" ></text>
</g>
<g >
<title>std::basic_istream&lt;char, (4 samples, 4.21%)</title><rect x="581.4" y="325" width="49.7" height="15.0" fill="rgb(224,120,5)" rx="2" ry="2" />
<text  x="584.37" y="335.5" >std::..</text>
</g>
<g >
<title>pageRankComputationWithNetwork (45 samples, 47.37%)</title><rect x="631.1" y="341" width="558.9" height="15.0" fill="rgb(252,125,33)" rx="2" ry="2" />
<text  x="634.05" y="351.5" >pageRankComputationWithNetwork</text>
</g>
<g >
<title>std::__detail::_Hash_code_base&lt;PageId, (1 samples, 1.05%)</title><rect x="519.3" y="149" width="12.4" height="15.0" fill="rgb(235,220,35)" rx="2" ry="2" />
<text  x="522.26" y="159.5" ></text>
</g>
<g >
<title>std::hash&lt;std::__cxx11::basic_string&lt;char, (3 samples, 3.16%)</title><rect x="531.7" y="133" width="37.2" height="15.0" fill="rgb(211,132,19)" rx="2" ry="2" />
<text  x="534.68" y="143.5" >std..</text>
</g>
<g >
<title>std::__detail::_Equal_helper&lt;PageId, (2 samples, 2.11%)</title><rect x="482.0" y="117" width="24.8" height="15.0" fill="rgb(250,25,51)" rx="2" ry="2" />
<text  x="485.00" y="127.5" >s..</text>
</g>
<g >
<title>std::unordered_map&lt;PageId, (12 samples, 12.63%)</title><rect x="419.9" y="197" width="149.0" height="15.0" fill="rgb(209,187,51)" rx="2" ry="2" />
<text  x="422.89" y="207.5" >std::unordered_map&lt;..</text>
</g>
<g >
<title>std::__detail::_Hash_code_base&lt;PageId, (2 samples, 2.11%)</title><rect x="457.2" y="117" width="24.8" height="15.0" fill="rgb(237,72,19)" rx="2" ry="2" />
<text  x="460.16" y="127.5" >s..</text>
</g>
<g >
<title>__GI__IO_getline_info (20 samples, 21.05%)</title><rect x="34.8" y="133" width="248.5" height="15.0" fill="rgb(218,229,21)" rx="2" ry="2" />
<text  x="37.84" y="143.5" >__GI__IO_getline_info</text>
</g>
<g >
<title>std::char_traits&lt;char&gt;::compare (1 samples, 1.05%)</title><rect x="494.4" y="53" width="12.4" height="15.0" fill="rgb(220,100,44)" rx="2" ry="2" />
<text  x="497.42" y="63.5" ></text>
</g>
<g >
<title>__GI___libc_malloc (1 samples, 1.05%)</title><rect x="10.0" y="117" width="12.4" height="15.0" fill="rgb(221,184,5)" rx="2" ry="2" />
<text  x="13.00" y="127.5" ></text>
</g>
<g >
<title>PageIdHash::operator() (3 samples, 3.16%)</title><rect x="531.7" y="149" width="37.2" height="15.0" fill="rgb(227,214,12)" rx="2" ry="2" />
<text  x="534.68" y="159.5" >Pag..</text>
</g>
<g >
<title>std::_Destroy_aux&lt;false&gt;::__destroy&lt;Page*&gt; (1 samples, 1.05%)</title><rect x="568.9" y="277" width="12.5" height="15.0" fill="rgb(214,179,12)" rx="2" ry="2" />
<text  x="571.95" y="287.5" ></text>
</g>
<g >
<title>Page::getId (1 samples, 1.05%)</title><rect x="10.0" y="181" width="12.4" height="15.0" fill="rgb(245,136,23)" rx="2" ry="2" />
<text  x="13.00" y="191.5" ></text>
</g>
<g >
<title>Network::~Network (1 samples, 1.05%)</title><rect x="568.9" y="341" width="12.5" height="15.0" fill="rgb(223,89,52)" rx="2" ry="2" />
<text  x="571.95" y="351.5" ></text>
</g>
<g >
<title>std::__detail::_Mod_range_hashing::operator() (2 samples, 2.11%)</title><rect x="457.2" y="101" width="24.8" height="15.0" fill="rgb(206,213,36)" rx="2" ry="2" />
<text  x="460.16" y="111.5" >s..</text>
</g>
<g >
<title>std::_Destroy&lt;PageId*, (1 samples, 1.05%)</title><rect x="568.9" y="213" width="12.5" height="15.0" fill="rgb(218,191,1)" rx="2" ry="2" />
<text  x="571.95" y="223.5" ></text>
</g>
<g >
<title>std::equal_to&lt;PageId&gt;::operator() (1 samples, 1.05%)</title><rect x="494.4" y="101" width="12.4" height="15.0" fill="rgb(209,31,51)" rx="2" ry="2" />
<text  x="497.42" y="111.5" ></text>
</g>
<g >
<title>std::_Hashtable&lt;PageId, (8 samples, 8.42%)</title><rect x="432.3" y="165" width="99.4" height="15.0" fill="rgb(226,78,14)" rx="2" ry="2" />
<text  x="435.32" y="175.5" >std::_Hashta..</text>
</g>
<g >
<title>main (50 samples, 52.63%)</title><rect x="568.9" y="357" width="621.1" height="15.0" fill="rgb(236,204,31)" rx="2" ry="2" />
<text  x="571.95" y="367.5" >main</text>
</g>
<g >
<title>start_thread (45 samples, 47.37%)</title><rect x="10.0" y="341" width="558.9" height="15.0" fill="rgb(249,112,51)" rx="2" ry="2" />
<text  x="13.00" y="351.5" >start_thread</text>
</g>
<g >
<title>std::_Hashtable&lt;PageId, (6 samples, 6.32%)</title><rect x="444.7" y="149" width="74.6" height="15.0" fill="rgb(246,140,6)" rx="2" ry="2" />
<text  x="447.74" y="159.5" >std::_Ha..</text>
</g>
<g >
<title>__GI___pthread_timedjoin_ex (45 samples, 47.37%)</title><rect x="631.1" y="293" width="558.9" height="15.0" fill="rgb(207,192,18)" rx="2" ry="2" />
<text  x="634.05" y="303.5" >__GI___pthread_timedjoin_ex</text>
</g>
<g >
<title>std::__detail::_Hash_code_base&lt;PageId, (1 samples, 1.05%)</title><rect x="22.4" y="149" width="12.4" height="15.0" fill="rgb(224,179,43)" rx="2" ry="2" />
<text  x="25.42" y="159.5" ></text>
</g>
<g >
<title>__libc_fork (5 samples, 5.26%)</title><rect x="283.3" y="133" width="62.1" height="15.0" fill="rgb(236,111,27)" rx="2" ry="2" />
<text  x="286.26" y="143.5" >__libc..</text>
</g>
<g >
<title>std::_Hash_bytes(void (1 samples, 1.05%)</title><rect x="22.4" y="85" width="12.4" height="15.0" fill="rgb(234,87,12)" rx="2" ry="2" />
<text  x="25.42" y="95.5" ></text>
</g>
<g >
<title>std::__cxx11::basic_string&lt;char, (1 samples, 1.05%)</title><rect x="10.0" y="149" width="12.4" height="15.0" fill="rgb(223,52,5)" rx="2" ry="2" />
<text  x="13.00" y="159.5" ></text>
</g>
<g >
<title>_IO_fgets (20 samples, 21.05%)</title><rect x="34.8" y="165" width="248.5" height="15.0" fill="rgb(247,171,38)" rx="2" ry="2" />
<text  x="37.84" y="175.5" >_IO_fgets</text>
</g>
<g >
<title>std::_Hash_bytes(void (3 samples, 3.16%)</title><rect x="531.7" y="101" width="37.2" height="15.0" fill="rgb(212,150,20)" rx="2" ry="2" />
<text  x="534.68" y="111.5" >std..</text>
</g>
<g >
<title>std::_Destroy&lt;PageId*&gt; (1 samples, 1.05%)</title><rect x="568.9" y="197" width="12.5" height="15.0" fill="rgb(219,25,48)" rx="2" ry="2" />
<text  x="571.95" y="207.5" ></text>
</g>
<g >
<title>std::_Destroy&lt;Page*&gt; (1 samples, 1.05%)</title><rect x="568.9" y="293" width="12.5" height="15.0" fill="rgb(229,212,54)" rx="2" ry="2" />
<text  x="571.95" y="303.5" ></text>
</g>
<g >
<title>_IO_new_popen (5 samples, 5.26%)</title><rect x="283.3" y="165" width="62.1" height="15.0" fill="rgb(210,29,36)" rx="2" ry="2" />
<text  x="286.26" y="175.5" >_IO_ne..</text>
</g>
<g >
<title>std::hash&lt;std::__cxx11::basic_string&lt;char, (1 samples, 1.05%)</title><rect x="22.4" y="117" width="12.4" height="15.0" fill="rgb(252,109,50)" rx="2" ry="2" />
<text  x="25.42" y="127.5" ></text>
</g>
<g >
<title>?? (45 samples, 47.37%)</title><rect x="10.0" y="325" width="558.9" height="15.0" fill="rgb(217,32,48)" rx="2" ry="2" />
<text  x="13.00" y="335.5" >??</text>
</g>
<g >
<title>std::vector&lt;PageId, (1 samples, 1.05%)</title><rect x="568.9" y="229" width="12.5" height="15.0" fill="rgb(222,52,51)" rx="2" ry="2" />
<text  x="571.95" y="239.5" ></text>
</g>
<g >
<title>PageId::PageId (1 samples, 1.05%)</title><rect x="10.0" y="165" width="12.4" height="15.0" fill="rgb(243,71,35)" rx="2" ry="2" />
<text  x="13.00" y="175.5" ></text>
</g>
<g >
<title>operator (1 samples, 1.05%)</title><rect x="407.5" y="165" width="12.4" height="15.0" fill="rgb(244,176,32)" rx="2" ry="2" />
<text  x="410.47" y="175.5" ></text>
</g>
<g >
<title>__GI___libc_read (1 samples, 1.05%)</title><rect x="618.6" y="261" width="12.5" height="15.0" fill="rgb(207,163,6)" rx="2" ry="2" />
<text  x="621.63" y="271.5" ></text>
</g>
<g >
<title>__GI___libc_read (20 samples, 21.05%)</title><rect x="34.8" y="69" width="248.5" height="15.0" fill="rgb(217,176,16)" rx="2" ry="2" />
<text  x="37.84" y="79.5" >__GI___libc_read</text>
</g>
<g >
<title>_int_free (1 samples, 1.05%)</title><rect x="568.9" y="133" width="12.5" height="15.0" fill="rgb(221,209,24)" rx="2" ry="2" />
<text  x="571.95" y="143.5" ></text>
</g>
<g >
<title>__GI__IO_getline (20 samples, 21.05%)</title><rect x="34.8" y="149" width="248.5" height="15.0" fill="rgb(225,34,40)" rx="2" ry="2" />
<text  x="37.84" y="159.5" >__GI__IO_getline</text>
</g>
<g >
<title>__GI___libc_read (20 samples, 21.05%)</title><rect x="34.8" y="85" width="248.5" height="15.0" fill="rgb(229,227,29)" rx="2" ry="2" />
<text  x="37.84" y="95.5" >__GI___libc_read</text>
</g>
<g >
<title>std::_Hashtable&lt;PageId, (2 samples, 2.11%)</title><rect x="457.2" y="133" width="24.8" height="15.0" fill="rgb(228,98,30)" rx="2" ry="2" />
<text  x="460.16" y="143.5" >s..</text>
</g>
<g >
<title>std::_Destroy&lt;Page*, (1 samples, 1.05%)</title><rect x="568.9" y="309" width="12.5" height="15.0" fill="rgb(221,130,45)" rx="2" ry="2" />
<text  x="571.95" y="319.5" ></text>
</g>
<g >
<title>StdinGenerator::generateNetworkOfSize (4 samples, 4.21%)</title><rect x="581.4" y="341" width="49.7" height="15.0" fill="rgb(215,82,53)" rx="2" ry="2" />
<text  x="584.37" y="351.5" >Stdin..</text>
</g>
<g >
<title>std::__detail::_Hash_node_value_base&lt;std::pair&lt;PageId (1 samples, 1.05%)</title><rect x="482.0" y="85" width="12.4" height="15.0" fill="rgb(254,108,39)" rx="2" ry="2" />
<text  x="485.00" y="95.5" ></text>
</g>
<g >
<title>std::__invoke&lt;MultiThreadedPageRankComputer::computeForNetwork(Network (45 samples, 47.37%)</title><rect x="10.0" y="261" width="558.9" height="15.0" fill="rgb(226,134,49)" rx="2" ry="2" />
<text  x="13.00" y="271.5" >std::__invoke&lt;MultiThreadedPageRankComputer::computeForNetwork(Network</text>
</g>
<g >
<title>std::_Destroy_aux&lt;false&gt;::__destroy&lt;PageId*&gt; (1 samples, 1.05%)</title><rect x="568.9" y="181" width="12.5" height="15.0" fill="rgb(207,55,21)" rx="2" ry="2" />
<text  x="571.95" y="191.5" ></text>
</g>
<g >
<title>MultiThreadedPageRankComputer::computeForNetwork (45 samples, 47.37%)</title><rect x="631.1" y="325" width="558.9" height="15.0" fill="rgb(209,101,13)" rx="2" ry="2" />
<text  x="634.05" y="335.5" >MultiThreadedPageRankComputer::computeForNetwork</text>
</g>
<g >
<title>_IO_new_proc_open (5 samples, 5.26%)</title><rect x="283.3" y="149" width="62.1" height="15.0" fill="rgb(229,19,3)" rx="2" ry="2" />
<text  x="286.26" y="159.5" >_IO_ne..</text>
</g>
<g >
<title>__memcmp_avx2_movbe (1 samples, 1.05%)</title><rect x="494.4" y="37" width="12.4" height="15.0" fill="rgb(237,226,19)" rx="2" ry="2" />
<text  x="497.42" y="47.5" ></text>
</g>
<g >
<title>std::__cxx11::basic_string&lt;char, (6 samples, 6.32%)</title><rect x="345.4" y="181" width="74.5" height="15.0" fill="rgb(242,155,33)" rx="2" ry="2" />
<text  x="348.37" y="191.5" >std::__c..</text>
</g>
<g >
<title>std::vector&lt;Page, (1 samples, 1.05%)</title><rect x="568.9" y="325" width="12.5" height="15.0" fill="rgb(229,164,17)" rx="2" ry="2" />
<text  x="571.95" y="335.5" ></text>
</g>
<g >
<title>__memmove_avx_unaligned_erms (4 samples, 4.21%)</title><rect x="357.8" y="165" width="49.7" height="15.0" fill="rgb(218,186,23)" rx="2" ry="2" />
<text  x="360.79" y="175.5" >__mem..</text>
</g>
<g >
<title>Page::~Page (1 samples, 1.05%)</title><rect x="568.9" y="245" width="12.5" height="15.0" fill="rgb(222,223,54)" rx="2" ry="2" />
<text  x="571.95" y="255.5" ></text>
</g>
<g >
<title>MultiThreadedPageRankComputer::computeForNetwork(Network (45 samples, 47.37%)</title><rect x="10.0" y="229" width="558.9" height="15.0" fill="rgb(245,166,32)" rx="2" ry="2" />
<text  x="13.00" y="239.5" >MultiThreadedPageRankComputer::computeForNetwork(Network</text>
</g>
<g >
<title>MultiThreadedPageRankComputer::WorkerData::work (45 samples, 47.37%)</title><rect x="10.0" y="213" width="558.9" height="15.0" fill="rgb(242,85,14)" rx="2" ry="2" />
<text  x="13.00" y="223.5" >MultiThreadedPageRankComputer::WorkerData::work</text>
</g>
<g >
<title>__gnu_cxx::__aligned_buffer&lt;std::pair&lt;PageId (1 samples, 1.05%)</title><rect x="482.0" y="69" width="12.4" height="15.0" fill="rgb(238,53,12)" rx="2" ry="2" />
<text  x="485.00" y="79.5" ></text>
</g>
<g >
<title>std::_Hash_impl::hash (3 samples, 3.16%)</title><rect x="531.7" y="117" width="37.2" height="15.0" fill="rgb(229,92,3)" rx="2" ry="2" />
<text  x="534.68" y="127.5" >std..</text>
</g>
<g >
<title>_int_malloc (1 samples, 1.05%)</title><rect x="10.0" y="101" width="12.4" height="15.0" fill="rgb(214,71,53)" rx="2" ry="2" />
<text  x="13.00" y="111.5" ></text>
</g>
<g >
<title>std::__detail::_Hashtable_base&lt;PageId, (3 samples, 3.16%)</title><rect x="482.0" y="133" width="37.3" height="15.0" fill="rgb(250,150,41)" rx="2" ry="2" />
<text  x="485.00" y="143.5" >std..</text>
</g>
<g >
<title>std::thread::join() (45 samples, 47.37%)</title><rect x="631.1" y="309" width="558.9" height="15.0" fill="rgb(230,191,15)" rx="2" ry="2" />
<text  x="634.05" y="319.5" >std::thread::join()</text>
</g>
<g >
<title>std::operator==&lt;char&gt; (1 samples, 1.05%)</title><rect x="494.4" y="69" width="12.4" height="15.0" fill="rgb(218,67,43)" rx="2" ry="2" />
<text  x="497.42" y="79.5" ></text>
</g>
<g >
<title>_IO_new_file_underflow (20 samples, 21.05%)</title><rect x="34.8" y="101" width="248.5" height="15.0" fill="rgb(226,224,32)" rx="2" ry="2" />
<text  x="37.84" y="111.5" >_IO_new_file_underflow</text>
</g>
<g >
<title>arch_fork (5 samples, 5.26%)</title><rect x="283.3" y="117" width="62.1" height="15.0" fill="rgb(225,215,0)" rx="2" ry="2" />
<text  x="286.26" y="127.5" >arch_f..</text>
</g>
<g >
<title>std::__invoke_impl&lt;void, (45 samples, 47.37%)</title><rect x="10.0" y="245" width="558.9" height="15.0" fill="rgb(250,223,54)" rx="2" ry="2" />
<text  x="13.00" y="255.5" >std::__invoke_impl&lt;void,</text>
</g>
<g >
<title>__gnu_cxx::__aligned_buffer&lt;std::pair&lt;PageId (1 samples, 1.05%)</title><rect x="482.0" y="53" width="12.4" height="15.0" fill="rgb(243,44,10)" rx="2" ry="2" />
<text  x="485.00" y="63.5" ></text>
</g>
<g >
<title>__GI__IO_default_uflow (1 samples, 1.05%)</title><rect x="618.6" y="293" width="12.5" height="15.0" fill="rgb(206,192,10)" rx="2" ry="2" />
<text  x="621.63" y="303.5" ></text>
</g>
<g >
<title>std::__detail::_Mod_range_hashing::operator() (1 samples, 1.05%)</title><rect x="519.3" y="133" width="12.4" height="15.0" fill="rgb(243,224,15)" rx="2" ry="2" />
<text  x="522.26" y="143.5" ></text>
</g>
<g >
<title>std::__detail::_Map_base&lt;PageId, (1 samples, 1.05%)</title><rect x="22.4" y="165" width="12.4" height="15.0" fill="rgb(216,86,53)" rx="2" ry="2" />
<text  x="25.42" y="175.5" ></text>
</g>
<g >
<title>_IO_new_file_underflow (1 samples, 1.05%)</title><rect x="618.6" y="277" width="12.5" height="15.0" fill="rgb(231,184,22)" rx="2" ry="2" />
<text  x="621.63" y="287.5" ></text>
</g>
<g >
<title>PageId::PageId (6 samples, 6.32%)</title><rect x="345.4" y="197" width="74.5" height="15.0" fill="rgb(230,168,32)" rx="2" ry="2" />
<text  x="348.37" y="207.5" >PageId::..</text>
</g>
<g >
<title>Page::generateId (25 samples, 26.32%)</title><rect x="34.8" y="197" width="310.6" height="15.0" fill="rgb(227,136,17)" rx="2" ry="2" />
<text  x="37.84" y="207.5" >Page::generateId</text>
</g>
<g >
<title>_IO_ungetc (1 samples, 1.05%)</title><rect x="593.8" y="309" width="12.4" height="15.0" fill="rgb(236,72,51)" rx="2" ry="2" />
<text  x="596.79" y="319.5" ></text>
</g>
<g >
<title>std::thread::_State_impl&lt;std::thread::_Invoker&lt;std::tuple&lt;MultiThreadedPageRankComputer::computeForNetwork(Network (45 samples, 47.37%)</title><rect x="10.0" y="309" width="558.9" height="15.0" fill="rgb(251,122,29)" rx="2" ry="2" />
<text  x="13.00" y="319.5" >std::thread::_State_impl&lt;std::thread::_Invoker&lt;std::tuple&lt;MultiThreadedPageR..</text>
</g>
<g >
<title>std::__detail::_Hash_code_base&lt;PageId, (3 samples, 3.16%)</title><rect x="531.7" y="165" width="37.2" height="15.0" fill="rgb(237,141,53)" rx="2" ry="2" />
<text  x="534.68" y="175.5" >std..</text>
</g>
<g >
<title>PageId::~PageId (1 samples, 1.05%)</title><rect x="568.9" y="149" width="12.5" height="15.0" fill="rgb(226,135,46)" rx="2" ry="2" />
<text  x="571.95" y="159.5" ></text>
</g>
<g >
<title>operator (1 samples, 1.05%)</title><rect x="10.0" y="133" width="12.4" height="15.0" fill="rgb(251,26,26)" rx="2" ry="2" />
<text  x="13.00" y="143.5" ></text>
</g>
</g>
</svg>
