<?xml version="1.0" standalone="no"?>
<!DOCTYPE svg PUBLIC "-//W3C//DTD SVG 1.1//EN" "http://www.w3.org/Graphics/SVG/1.1/DTD/svg11.dtd">
<svg version="1.1" width="1200" height="422" onload="init(evt)" viewBox="0 0 1200 422" xmlns="http://www.w3.org/2000/svg" xmlns:xlink="http://www.w3.org/1999/xlink">
<!-- Flame graph stack visualization. See https://github.com/brendangregg/FlameGraph for latest version, and http://www.brendangregg.com/flamegraphs.html for examples. -->
<!-- NOTES:  -->
<defs>
	<linearGradient id="background" y1="0" y2="1" x1="0" x2="0" >
		<stop stop-color="#eeeeee" offset="5%" />
		<stop stop-color="#eeeeb0" offset="95%" />
	</linearGradient>
</defs>
<style type="text/css">
	text { font-family:Verdana; font-size:12px; fill:rgb(0,0,0); }
	#search, #ignorecase { opacity:0.1; cursor:pointer; }
	#search:hover, #search.show, #ignorecase:hover, #ignorecase.show { opacity:1; }
	#subtitle { text-anchor:middle; font-color:rgb(160,160,160); }
	#title { text-anchor:middle; font-size:17px}
	#unzoom { cursor:pointer; }
	#frames > *:hover { stroke:black; stroke-width:0.5; cursor:pointer; }
	.hide { display:none; }
	.parent { opacity:0.5; }
</style>
<script type="text/ecmascript">
<![CDATA[
	"use strict";
	var details, searchbtn, unzoombtn, matchedtxt, svg, searching, currentSearchTerm, ignorecase, ignorecaseBtn;
	function init(evt) {
		details = document.getElementById("details").firstChild;
		searchbtn = document.getElementById("search");
		ignorecaseBtn = document.getElementById("ignorecase");
		unzoombtn = document.getElementById("unzoom");
		matchedtxt = document.getElementById("matched");
		svg = document.getElementsByTagName("svg")[0];
		searching = 0;
		currentSearchTerm = null;
	}

	window.addEventListener("click", function(e) {
		var target = find_group(e.target);
		if (target) {
			if (target.nodeName == "a") {
				if (e.ctrlKey === false) return;
				e.preventDefault();
			}
			if (target.classList.contains("parent")) unzoom();
			zoom(target);
		}
		else if (e.target.id == "unzoom") unzoom();
		else if (e.target.id == "search") search_prompt();
		else if (e.target.id == "ignorecase") toggle_ignorecase();
	}, false)

	// mouse-over for info
	// show
	window.addEventListener("mouseover", function(e) {
		var target = find_group(e.target);
		if (target) details.nodeValue = "Function: " + g_to_text(target);
	}, false)

	// clear
	window.addEventListener("mouseout", function(e) {
		var target = find_group(e.target);
		if (target) details.nodeValue = ' ';
	}, false)

	// ctrl-F for search
	window.addEventListener("keydown",function (e) {
		if (e.keyCode === 114 || (e.ctrlKey && e.keyCode === 70)) {
			e.preventDefault();
			search_prompt();
		}
	}, false)

	// ctrl-I to toggle case-sensitive search
	window.addEventListener("keydown",function (e) {
		if (e.ctrlKey && e.keyCode === 73) {
			e.preventDefault();
			toggle_ignorecase();
		}
	}, false)

	// functions
	function find_child(node, selector) {
		var children = node.querySelectorAll(selector);
		if (children.length) return children[0];
		return;
	}
	function find_group(node) {
		var parent = node.parentElement;
		if (!parent) return;
		if (parent.id == "frames") return node;
		return find_group(parent);
	}
	function orig_save(e, attr, val) {
		if (e.attributes["_orig_" + attr] != undefined) return;
		if (e.attributes[attr] == undefined) return;
		if (val == undefined) val = e.attributes[attr].value;
		e.setAttribute("_orig_" + attr, val);
	}
	function orig_load(e, attr) {
		if (e.attributes["_orig_"+attr] == undefined) return;
		e.attributes[attr].value = e.attributes["_orig_" + attr].value;
		e.removeAttribute("_orig_"+attr);
	}
	function g_to_text(e) {
		var text = find_child(e, "title").firstChild.nodeValue;
		return (text)
	}
	function g_to_func(e) {
		var func = g_to_text(e);
		// if there's any manipulation we want to do to the function
		// name before it's searched, do it here before returning.
		return (func);
	}
	function update_text(e) {
		var r = find_child(e, "rect");
		var t = find_child(e, "text");
		var w = parseFloat(r.attributes.width.value) -3;
		var txt = find_child(e, "title").textContent.replace(/\([^(]*\)$/,"");
		t.attributes.x.value = parseFloat(r.attributes.x.value) + 3;

		// Smaller than this size won't fit anything
		if (w < 2 * 12 * 0.59) {
			t.textContent = "";
			return;
		}

		t.textContent = txt;
		// Fit in full text width
		if (/^ *$/.test(txt) || t.getSubStringLength(0, txt.length) < w)
			return;

		for (var x = txt.length - 2; x > 0; x--) {
			if (t.getSubStringLength(0, x + 2) <= w) {
				t.textContent = txt.substring(0, x) + "..";
				return;
			}
		}
		t.textContent = "";
	}

	// zoom
	function zoom_reset(e) {
		if (e.attributes != undefined) {
			orig_load(e, "x");
			orig_load(e, "width");
		}
		if (e.childNodes == undefined) return;
		for (var i = 0, c = e.childNodes; i < c.length; i++) {
			zoom_reset(c[i]);
		}
	}
	function zoom_child(e, x, ratio) {
		if (e.attributes != undefined) {
			if (e.attributes.x != undefined) {
				orig_save(e, "x");
				e.attributes.x.value = (parseFloat(e.attributes.x.value) - x - 10) * ratio + 10;
				if (e.tagName == "text")
					e.attributes.x.value = find_child(e.parentNode, "rect[x]").attributes.x.value + 3;
			}
			if (e.attributes.width != undefined) {
				orig_save(e, "width");
				e.attributes.width.value = parseFloat(e.attributes.width.value) * ratio;
			}
		}

		if (e.childNodes == undefined) return;
		for (var i = 0, c = e.childNodes; i < c.length; i++) {
			zoom_child(c[i], x - 10, ratio);
		}
	}
	function zoom_parent(e) {
		if (e.attributes) {
			if (e.attributes.x != undefined) {
				orig_save(e, "x");
				e.attributes.x.value = 10;
			}
			if (e.attributes.width != undefined) {
				orig_save(e, "width");
				e.attributes.width.value = parseInt(svg.width.baseVal.value) - (10 * 2);
			}
		}
		if (e.childNodes == undefined) return;
		for (var i = 0, c = e.childNodes; i < c.length; i++) {
			zoom_parent(c[i]);
		}
	}
	function zoom(node) {
		var attr = find_child(node, "rect").attributes;
		var width = parseFloat(attr.width.value);
		var xmin = parseFloat(attr.x.value);
		var xmax = parseFloat(xmin + width);
		var ymin = parseFloat(attr.y.value);
		var ratio = (svg.width.baseVal.value - 2 * 10) / width;

		// XXX: Workaround for JavaScript float issues (fix me)
		var fudge = 0.0001;

		unzoombtn.classList.remove("hide");

		var el = document.getElementById("frames").children;
		for (var i = 0; i < el.length; i++) {
			var e = el[i];
			var a = find_child(e, "rect").attributes;
			var ex = parseFloat(a.x.value);
			var ew = parseFloat(a.width.value);
			var upstack;
			// Is it an ancestor
			if (0 == 0) {
				upstack = parseFloat(a.y.value) > ymin;
			} else {
				upstack = parseFloat(a.y.value) < ymin;
			}
			if (upstack) {
				// Direct ancestor
				if (ex <= xmin && (ex+ew+fudge) >= xmax) {
					e.classList.add("parent");
					zoom_parent(e);
					update_text(e);
				}
				// not in current path
				else
					e.classList.add("hide");
			}
			// Children maybe
			else {
				// no common path
				if (ex < xmin || ex + fudge >= xmax) {
					e.classList.add("hide");
				}
				else {
					zoom_child(e, xmin, ratio);
					update_text(e);
				}
			}
		}
		search();
	}
	function unzoom() {
		unzoombtn.classList.add("hide");
		var el = document.getElementById("frames").children;
		for(var i = 0; i < el.length; i++) {
			el[i].classList.remove("parent");
			el[i].classList.remove("hide");
			zoom_reset(el[i]);
			update_text(el[i]);
		}
		search();
	}

	// search
	function toggle_ignorecase() {
		ignorecase = !ignorecase;
		if (ignorecase) {
			ignorecaseBtn.classList.add("show");
		} else {
			ignorecaseBtn.classList.remove("show");
		}
		reset_search();
		search();
	}
	function reset_search() {
		var el = document.querySelectorAll("#frames rect");
		for (var i = 0; i < el.length; i++) {
			orig_load(el[i], "fill")
		}
	}
	function search_prompt() {
		if (!searching) {
			var term = prompt("Enter a search term (regexp " +
			    "allowed, eg: ^ext4_)"
			    + (ignorecase ? ", ignoring case" : "")
			    + "\nPress Ctrl-i to toggle case sensitivity", "");
			if (term != null) {
				currentSearchTerm = term;
				search();
			}
		} else {
			reset_search();
			searching = 0;
			currentSearchTerm = null;
			searchbtn.classList.remove("show");
			searchbtn.firstChild.nodeValue = "Search"
			matchedtxt.classList.add("hide");
			matchedtxt.firstChild.nodeValue = ""
		}
	}
	function search(term) {
		if (currentSearchTerm === null) return;
		var term = currentSearchTerm;

		var re = new RegExp(term, ignorecase ? 'i' : '');
		var el = document.getElementById("frames").children;
		var matches = new Object();
		var maxwidth = 0;
		for (var i = 0; i < el.length; i++) {
			var e = el[i];
			var func = g_to_func(e);
			var rect = find_child(e, "rect");
			if (func == null || rect == null)
				continue;

			// Save max width. Only works as we have a root frame
			var w = parseFloat(rect.attributes.width.value);
			if (w > maxwidth)
				maxwidth = w;

			if (func.match(re)) {
				// highlight
				var x = parseFloat(rect.attributes.x.value);
				orig_save(rect, "fill");
				rect.attributes.fill.value = "rgb(230,0,230)";

				// remember matches
				if (matches[x] == undefined) {
					matches[x] = w;
				} else {
					if (w > matches[x]) {
						// overwrite with parent
						matches[x] = w;
					}
				}
				searching = 1;
			}
		}
		if (!searching)
			return;

		searchbtn.classList.add("show");
		searchbtn.firstChild.nodeValue = "Reset Search";

		// calculate percent matched, excluding vertical overlap
		var count = 0;
		var lastx = -1;
		var lastw = 0;
		var keys = Array();
		for (k in matches) {
			if (matches.hasOwnProperty(k))
				keys.push(k);
		}
		// sort the matched frames by their x location
		// ascending, then width descending
		keys.sort(function(a, b){
			return a - b;
		});
		// Step through frames saving only the biggest bottom-up frames
		// thanks to the sort order. This relies on the tree property
		// where children are always smaller than their parents.
		var fudge = 0.0001;	// JavaScript floating point
		for (var k in keys) {
			var x = parseFloat(keys[k]);
			var w = matches[keys[k]];
			if (x >= lastx + lastw - fudge) {
				count += w;
				lastx = x;
				lastw = w;
			}
		}
		// display matched percent
		matchedtxt.classList.remove("hide");
		var pct = 100 * count / maxwidth;
		if (pct != 100) pct = pct.toFixed(1)
		matchedtxt.firstChild.nodeValue = "Matched: " + pct + "%";
	}
]]>
</script>
<rect x="0.0" y="0" width="1200.0" height="422.0" fill="url(#background)"  />
<text id="title" x="600.00" y="24" >Flame Graph</text>
<text id="details" x="10.00" y="405" > </text>
<text id="unzoom" x="10.00" y="24" class="hide">Reset Zoom</text>
<text id="search" x="1090.00" y="24" >Search</text>
<text id="ignorecase" x="1174.00" y="24" >ic</text>
<text id="matched" x="1090.00" y="405" > </text>
<g id="frames">
<g >
<title>std::vector&lt;PageId, (1 samples, 1.39%)</title><rect x="518.1" y="165" width="16.3" height="15.0" fill="rgb(229,20,15)" rx="2" ry="2" />
<text  x="521.06" y="175.5" ></text>
</g>
<g >
<title>std::_Vector_base&lt;PageId, (1 samples, 1.39%)</title><rect x="1173.6" y="277" width="16.4" height="15.0" fill="rgb(210,78,16)" rx="2" ry="2" />
<text  x="1176.61" y="287.5" ></text>
</g>
<g >
<title>std::allocator_traits&lt;std::allocator&lt;Page&gt; (3 samples, 4.17%)</title><rect x="1058.9" y="277" width="49.2" height="15.0" fill="rgb(244,133,49)" rx="2" ry="2" />
<text  x="1061.89" y="287.5" >std:..</text>
</g>
<g >
<title>std::uninitialized_copy&lt;__gnu_cxx::__normal_iterator&lt;PageId (1 samples, 1.39%)</title><rect x="501.7" y="85" width="16.4" height="15.0" fill="rgb(241,131,7)" rx="2" ry="2" />
<text  x="504.67" y="95.5" ></text>
</g>
<g >
<title>__GI___libc_malloc (2 samples, 2.78%)</title><rect x="26.4" y="117" width="32.8" height="15.0" fill="rgb(228,177,44)" rx="2" ry="2" />
<text  x="29.39" y="127.5" >__..</text>
</g>
<g >
<title>std::__detail::_Map_base&lt;PageId, (1 samples, 1.39%)</title><rect x="75.6" y="165" width="16.3" height="15.0" fill="rgb(218,5,15)" rx="2" ry="2" />
<text  x="78.56" y="175.5" ></text>
</g>
<g >
<title>std::__cxx11::basic_string&lt;char, (1 samples, 1.39%)</title><rect x="1124.4" y="245" width="16.4" height="15.0" fill="rgb(220,96,7)" rx="2" ry="2" />
<text  x="1127.44" y="255.5" ></text>
</g>
<g >
<title>std::__cxx11::basic_string&lt;char, (1 samples, 1.39%)</title><rect x="1124.4" y="229" width="16.4" height="15.0" fill="rgb(236,51,35)" rx="2" ry="2" />
<text  x="1127.44" y="239.5" ></text>
</g>
<g >
<title>operator (1 samples, 1.39%)</title><rect x="1157.2" y="213" width="16.4" height="15.0" fill="rgb(208,214,47)" rx="2" ry="2" />
<text  x="1160.22" y="223.5" ></text>
</g>
<g >
<title>std::_Destroy_aux&lt;false&gt;::__destroy&lt;PageId*&gt; (1 samples, 1.39%)</title><rect x="1042.5" y="165" width="16.4" height="15.0" fill="rgb(205,110,24)" rx="2" ry="2" />
<text  x="1045.50" y="175.5" ></text>
</g>
<g >
<title>std::vector&lt;PageId, (1 samples, 1.39%)</title><rect x="1042.5" y="213" width="16.4" height="15.0" fill="rgb(227,40,46)" rx="2" ry="2" />
<text  x="1045.50" y="223.5" ></text>
</g>
<g >
<title>std::operator==&lt;char&gt; (2 samples, 2.78%)</title><rect x="370.6" y="69" width="32.7" height="15.0" fill="rgb(207,95,40)" rx="2" ry="2" />
<text  x="373.56" y="79.5" >st..</text>
</g>
<g >
<title>std::__invoke&lt;MultiThreadedPageRankComputer::computeForNetwork(Network (31 samples, 43.06%)</title><rect x="10.0" y="261" width="508.1" height="15.0" fill="rgb(226,59,43)" rx="2" ry="2" />
<text  x="13.00" y="271.5" >std::__invoke&lt;MultiThreadedPageRankComputer::computeForNetwork(Network</text>
</g>
<g >
<title>std::__detail::_Mod_range_hashing::operator() (1 samples, 1.39%)</title><rect x="452.5" y="133" width="16.4" height="15.0" fill="rgb(212,177,39)" rx="2" ry="2" />
<text  x="455.50" y="143.5" ></text>
</g>
<g >
<title>std::allocator_traits&lt;std::allocator&lt;std::__detail::_Hash_node&lt;std::pair&lt;PageId (1 samples, 1.39%)</title><rect x="518.1" y="213" width="16.3" height="15.0" fill="rgb(235,149,41)" rx="2" ry="2" />
<text  x="521.06" y="223.5" ></text>
</g>
<g >
<title>std::char_traits&lt;char&gt;::compare (1 samples, 1.39%)</title><rect x="386.9" y="53" width="16.4" height="15.0" fill="rgb(250,34,12)" rx="2" ry="2" />
<text  x="389.94" y="63.5" ></text>
</g>
<g >
<title>_int_malloc (2 samples, 2.78%)</title><rect x="26.4" y="101" width="32.8" height="15.0" fill="rgb(222,8,19)" rx="2" ry="2" />
<text  x="29.39" y="111.5" >_i..</text>
</g>
<g >
<title>std::__detail::_Equal_helper&lt;PageId, (6 samples, 8.33%)</title><rect x="305.0" y="117" width="98.3" height="15.0" fill="rgb(231,161,41)" rx="2" ry="2" />
<text  x="308.00" y="127.5" >std::__deta..</text>
</g>
<g >
<title>std::_Destroy&lt;PageId&gt; (1 samples, 1.39%)</title><rect x="518.1" y="101" width="16.3" height="15.0" fill="rgb(245,106,17)" rx="2" ry="2" />
<text  x="521.06" y="111.5" ></text>
</g>
<g >
<title>__gnu_cxx::new_allocator&lt;std::__detail::_Hash_node&lt;std::pair&lt;PageId (1 samples, 1.39%)</title><rect x="518.1" y="197" width="16.3" height="15.0" fill="rgb(218,158,3)" rx="2" ry="2" />
<text  x="521.06" y="207.5" ></text>
</g>
<g >
<title>std::thread::_Invoker&lt;std::tuple&lt;MultiThreadedPageRankComputer::computeForNetwork(Network (31 samples, 43.06%)</title><rect x="10.0" y="277" width="508.1" height="15.0" fill="rgb(226,131,0)" rx="2" ry="2" />
<text  x="13.00" y="287.5" >std::thread::_Invoker&lt;std::tuple&lt;MultiThreadedPageRankComputer::compu..</text>
</g>
<g >
<title>std::__relocate_object_a&lt;PageId, (1 samples, 1.39%)</title><rect x="91.9" y="69" width="16.4" height="15.0" fill="rgb(224,7,39)" rx="2" ry="2" />
<text  x="94.94" y="79.5" ></text>
</g>
<g >
<title>std::allocator_traits&lt;std::allocator&lt;PageId&gt; (1 samples, 1.39%)</title><rect x="1173.6" y="245" width="16.4" height="15.0" fill="rgb(249,90,2)" rx="2" ry="2" />
<text  x="1176.61" y="255.5" ></text>
</g>
<g >
<title>SimpleIdGenerator::generateId (2 samples, 2.78%)</title><rect x="1140.8" y="277" width="32.8" height="15.0" fill="rgb(216,164,21)" rx="2" ry="2" />
<text  x="1143.83" y="287.5" >Si..</text>
</g>
<g >
<title>MultiThreadedPageRankComputer::WorkerData::~WorkerData (1 samples, 1.39%)</title><rect x="518.1" y="309" width="16.3" height="15.0" fill="rgb(242,26,17)" rx="2" ry="2" />
<text  x="521.06" y="319.5" ></text>
</g>
<g >
<title>std::__detail::_Hash_code_base&lt;PageId, (2 samples, 2.78%)</title><rect x="468.9" y="165" width="32.8" height="15.0" fill="rgb(215,195,50)" rx="2" ry="2" />
<text  x="471.89" y="175.5" >st..</text>
</g>
<g >
<title>std::vector&lt;Page, (1 samples, 1.39%)</title><rect x="1042.5" y="309" width="16.4" height="15.0" fill="rgb(237,118,12)" rx="2" ry="2" />
<text  x="1045.50" y="319.5" ></text>
</g>
<g >
<title>std::__cxx11::basic_string&lt;char, (8 samples, 11.11%)</title><rect x="108.3" y="181" width="131.1" height="15.0" fill="rgb(213,179,28)" rx="2" ry="2" />
<text  x="111.33" y="191.5" >std::__cxx11::ba..</text>
</g>
<g >
<title>std::_Destroy&lt;PageId*&gt; (1 samples, 1.39%)</title><rect x="1042.5" y="181" width="16.4" height="15.0" fill="rgb(252,103,15)" rx="2" ry="2" />
<text  x="1045.50" y="191.5" ></text>
</g>
<g >
<title>std::operator+&lt;char, (2 samples, 2.78%)</title><rect x="1140.8" y="261" width="32.8" height="15.0" fill="rgb(234,182,7)" rx="2" ry="2" />
<text  x="1143.83" y="271.5" >st..</text>
</g>
<g >
<title>std::vector&lt;PageId, (1 samples, 1.39%)</title><rect x="91.9" y="133" width="16.4" height="15.0" fill="rgb(233,39,18)" rx="2" ry="2" />
<text  x="94.94" y="143.5" ></text>
</g>
<g >
<title>std::vector&lt;PageId, (1 samples, 1.39%)</title><rect x="91.9" y="165" width="16.4" height="15.0" fill="rgb(233,0,27)" rx="2" ry="2" />
<text  x="94.94" y="175.5" ></text>
</g>
<g >
<title>main (41 samples, 56.94%)</title><rect x="518.1" y="357" width="671.9" height="15.0" fill="rgb(249,138,1)" rx="2" ry="2" />
<text  x="521.06" y="367.5" >main</text>
</g>
<g >
<title>std::allocator_traits&lt;std::allocator&lt;PageId&gt; (1 samples, 1.39%)</title><rect x="91.9" y="53" width="16.4" height="15.0" fill="rgb(223,224,40)" rx="2" ry="2" />
<text  x="94.94" y="63.5" ></text>
</g>
<g >
<title>mprotect (1 samples, 1.39%)</title><rect x="42.8" y="53" width="16.4" height="15.0" fill="rgb(254,127,11)" rx="2" ry="2" />
<text  x="45.78" y="63.5" ></text>
</g>
<g >
<title>NetworkGenerator::generatePageFromNumWithGeneratedId (4 samples, 5.56%)</title><rect x="1108.1" y="309" width="65.5" height="15.0" fill="rgb(207,67,19)" rx="2" ry="2" />
<text  x="1111.06" y="319.5" >Network..</text>
</g>
<g >
<title>_int_malloc (1 samples, 1.39%)</title><rect x="1075.3" y="85" width="16.4" height="15.0" fill="rgb(206,197,1)" rx="2" ry="2" />
<text  x="1078.28" y="95.5" ></text>
</g>
<g >
<title>std::allocator_traits&lt;std::allocator&lt;Page&gt; (1 samples, 1.39%)</title><rect x="501.7" y="165" width="16.4" height="15.0" fill="rgb(211,149,13)" rx="2" ry="2" />
<text  x="504.67" y="175.5" ></text>
</g>
<g >
<title>Page::generateId (2 samples, 2.78%)</title><rect x="1140.8" y="293" width="32.8" height="15.0" fill="rgb(252,164,31)" rx="2" ry="2" />
<text  x="1143.83" y="303.5" >Pa..</text>
</g>
<g >
<title>__gnu_cxx::new_allocator&lt;Page&gt;::construct&lt;Page, (1 samples, 1.39%)</title><rect x="501.7" y="149" width="16.4" height="15.0" fill="rgb(235,113,0)" rx="2" ry="2" />
<text  x="504.67" y="159.5" ></text>
</g>
<g >
<title>std::__cxx11::basic_string&lt;char, (2 samples, 2.78%)</title><rect x="26.4" y="149" width="32.8" height="15.0" fill="rgb(215,62,50)" rx="2" ry="2" />
<text  x="29.39" y="159.5" >st..</text>
</g>
<g >
<title>__GI___libc_malloc (1 samples, 1.39%)</title><rect x="223.1" y="149" width="16.3" height="15.0" fill="rgb(247,128,7)" rx="2" ry="2" />
<text  x="226.06" y="159.5" ></text>
</g>
<g >
<title>std::__detail::_Map_base&lt;PageId, (14 samples, 19.44%)</title><rect x="272.2" y="181" width="229.5" height="15.0" fill="rgb(254,3,31)" rx="2" ry="2" />
<text  x="275.22" y="191.5" >std::__detail::_Map_base&lt;PageId,</text>
</g>
<g >
<title>std::__detail::_Select1st::operator()&lt;std::pair&lt;PageId (1 samples, 1.39%)</title><rect x="337.8" y="101" width="16.4" height="15.0" fill="rgb(228,75,37)" rx="2" ry="2" />
<text  x="340.78" y="111.5" ></text>
</g>
<g >
<title>Page::Page (1 samples, 1.39%)</title><rect x="501.7" y="133" width="16.4" height="15.0" fill="rgb(226,109,41)" rx="2" ry="2" />
<text  x="504.67" y="143.5" ></text>
</g>
<g >
<title>MultiThreadedPageRankComputer::WorkerData::work (31 samples, 43.06%)</title><rect x="10.0" y="213" width="508.1" height="15.0" fill="rgb(210,101,32)" rx="2" ry="2" />
<text  x="13.00" y="223.5" >MultiThreadedPageRankComputer::WorkerData::work</text>
</g>
<g >
<title>MultiThreadedPageRankComputer::computeForNetwork (32 samples, 44.44%)</title><rect x="518.1" y="325" width="524.4" height="15.0" fill="rgb(245,207,21)" rx="2" ry="2" />
<text  x="521.06" y="335.5" >MultiThreadedPageRankComputer::computeForNetwork</text>
</g>
<g >
<title>std::equal_to&lt;PageId&gt;::operator() (3 samples, 4.17%)</title><rect x="354.2" y="101" width="49.1" height="15.0" fill="rgb(242,106,15)" rx="2" ry="2" />
<text  x="357.17" y="111.5" >std:..</text>
</g>
<g >
<title>std::__detail::_Hash_code_base&lt;PageId, (1 samples, 1.39%)</title><rect x="436.1" y="133" width="16.4" height="15.0" fill="rgb(232,22,54)" rx="2" ry="2" />
<text  x="439.11" y="143.5" ></text>
</g>
<g >
<title>std::__cxx11::to_string (1 samples, 1.39%)</title><rect x="1124.4" y="277" width="16.4" height="15.0" fill="rgb(205,182,30)" rx="2" ry="2" />
<text  x="1127.44" y="287.5" ></text>
</g>
<g >
<title>__gnu_cxx::new_allocator&lt;PageId&gt;::deallocate (1 samples, 1.39%)</title><rect x="1173.6" y="229" width="16.4" height="15.0" fill="rgb(211,185,26)" rx="2" ry="2" />
<text  x="1176.61" y="239.5" ></text>
</g>
<g >
<title>std::__cxx11::basic_string&lt;char, (1 samples, 1.39%)</title><rect x="370.6" y="53" width="16.3" height="15.0" fill="rgb(228,96,5)" rx="2" ry="2" />
<text  x="373.56" y="63.5" ></text>
</g>
<g >
<title>__gnu_cxx::__to_xstring&lt;std::__cxx11::basic_string&lt;char, (1 samples, 1.39%)</title><rect x="1124.4" y="261" width="16.4" height="15.0" fill="rgb(253,226,7)" rx="2" ry="2" />
<text  x="1127.44" y="271.5" ></text>
</g>
<g >
<title>MultiThreadedPageRankComputer::computeForNetwork(Network (31 samples, 43.06%)</title><rect x="10.0" y="229" width="508.1" height="15.0" fill="rgb(230,227,48)" rx="2" ry="2" />
<text  x="13.00" y="239.5" >MultiThreadedPageRankComputer::computeForNetwork(Network</text>
</g>
<g >
<title>sysmalloc (2 samples, 2.78%)</title><rect x="26.4" y="85" width="32.8" height="15.0" fill="rgb(250,189,11)" rx="2" ry="2" />
<text  x="29.39" y="95.5" >sy..</text>
</g>
<g >
<title>?? (31 samples, 43.06%)</title><rect x="10.0" y="325" width="508.1" height="15.0" fill="rgb(225,158,24)" rx="2" ry="2" />
<text  x="13.00" y="335.5" >??</text>
</g>
<g >
<title>malloc_consolidate (1 samples, 1.39%)</title><rect x="1173.6" y="197" width="16.4" height="15.0" fill="rgb(235,202,50)" rx="2" ry="2" />
<text  x="1176.61" y="207.5" ></text>
</g>
<g >
<title>pageRankComputationWithNumNodes (41 samples, 56.94%)</title><rect x="518.1" y="341" width="671.9" height="15.0" fill="rgb(206,135,1)" rx="2" ry="2" />
<text  x="521.06" y="351.5" >pageRankComputationWithNumNodes</text>
</g>
<g >
<title>PageId::PageId (1 samples, 1.39%)</title><rect x="59.2" y="181" width="16.4" height="15.0" fill="rgb(218,22,32)" rx="2" ry="2" />
<text  x="62.17" y="191.5" ></text>
</g>
<g >
<title>std::vector&lt;PageId, (1 samples, 1.39%)</title><rect x="91.9" y="117" width="16.4" height="15.0" fill="rgb(216,96,10)" rx="2" ry="2" />
<text  x="94.94" y="127.5" ></text>
</g>
<g >
<title>_int_free (1 samples, 1.39%)</title><rect x="518.1" y="69" width="16.3" height="15.0" fill="rgb(220,152,42)" rx="2" ry="2" />
<text  x="521.06" y="79.5" ></text>
</g>
<g >
<title>std::_Hashtable&lt;PageId, (1 samples, 1.39%)</title><rect x="518.1" y="261" width="16.3" height="15.0" fill="rgb(223,111,7)" rx="2" ry="2" />
<text  x="521.06" y="271.5" ></text>
</g>
<g >
<title>Page::Page (3 samples, 4.17%)</title><rect x="1058.9" y="245" width="49.2" height="15.0" fill="rgb(236,149,27)" rx="2" ry="2" />
<text  x="1061.89" y="255.5" >Page..</text>
</g>
<g >
<title>PageId::PageId (3 samples, 4.17%)</title><rect x="1058.9" y="149" width="49.2" height="15.0" fill="rgb(232,134,22)" rx="2" ry="2" />
<text  x="1061.89" y="159.5" >Page..</text>
</g>
<g >
<title>operator (1 samples, 1.39%)</title><rect x="1140.8" y="229" width="16.4" height="15.0" fill="rgb(221,31,5)" rx="2" ry="2" />
<text  x="1143.83" y="239.5" ></text>
</g>
<g >
<title>std::__pair_get&lt;0ul&gt;::__get&lt;PageId (1 samples, 1.39%)</title><rect x="337.8" y="69" width="16.4" height="15.0" fill="rgb(210,42,14)" rx="2" ry="2" />
<text  x="340.78" y="79.5" ></text>
</g>
<g >
<title>PageId::PageId (2 samples, 2.78%)</title><rect x="26.4" y="165" width="32.8" height="15.0" fill="rgb(231,33,44)" rx="2" ry="2" />
<text  x="29.39" y="175.5" >Pa..</text>
</g>
<g >
<title>SimpleNetworkGenerator::generateNetworkOfSize (8 samples, 11.11%)</title><rect x="1058.9" y="325" width="131.1" height="15.0" fill="rgb(250,35,11)" rx="2" ry="2" />
<text  x="1061.89" y="335.5" >SimpleNetworkGen..</text>
</g>
<g >
<title>std::__cxx11::basic_string&lt;char, (1 samples, 1.39%)</title><rect x="59.2" y="165" width="16.4" height="15.0" fill="rgb(220,60,45)" rx="2" ry="2" />
<text  x="62.17" y="175.5" ></text>
</g>
<g >
<title>std::vector&lt;Page, (1 samples, 1.39%)</title><rect x="501.7" y="181" width="16.4" height="15.0" fill="rgb(239,9,2)" rx="2" ry="2" />
<text  x="504.67" y="191.5" ></text>
</g>
<g >
<title>std::vector&lt;PageId, (3 samples, 4.17%)</title><rect x="1058.9" y="229" width="49.2" height="15.0" fill="rgb(230,8,48)" rx="2" ry="2" />
<text  x="1061.89" y="239.5" >std:..</text>
</g>
<g >
<title>std::_Hashtable&lt;PageId, (1 samples, 1.39%)</title><rect x="75.6" y="133" width="16.3" height="15.0" fill="rgb(216,37,36)" rx="2" ry="2" />
<text  x="78.56" y="143.5" ></text>
</g>
<g >
<title>std::__detail::_Hashtable_ebo_helper&lt;2, (1 samples, 1.39%)</title><rect x="436.1" y="117" width="16.4" height="15.0" fill="rgb(244,172,52)" rx="2" ry="2" />
<text  x="439.11" y="127.5" ></text>
</g>
<g >
<title>__GI___libc_malloc (1 samples, 1.39%)</title><rect x="1075.3" y="101" width="16.4" height="15.0" fill="rgb(238,195,10)" rx="2" ry="2" />
<text  x="1078.28" y="111.5" ></text>
</g>
<g >
<title>Page::getId (2 samples, 2.78%)</title><rect x="26.4" y="181" width="32.8" height="15.0" fill="rgb(223,169,41)" rx="2" ry="2" />
<text  x="29.39" y="191.5" >Pa..</text>
</g>
<g >
<title>std::_Destroy_aux&lt;false&gt;::__destroy&lt;Page*&gt; (1 samples, 1.39%)</title><rect x="1042.5" y="261" width="16.4" height="15.0" fill="rgb(246,76,49)" rx="2" ry="2" />
<text  x="1045.50" y="271.5" ></text>
</g>
<g >
<title>std::__cxx11::basic_string&lt;char, (1 samples, 1.39%)</title><rect x="1124.4" y="213" width="16.4" height="15.0" fill="rgb(226,202,39)" rx="2" ry="2" />
<text  x="1127.44" y="223.5" ></text>
</g>
<g >
<title>MultiThreadedPageRankComputer::WorkerData::initRestSequential (5 samples, 6.94%)</title><rect x="26.4" y="197" width="81.9" height="15.0" fill="rgb(215,146,34)" rx="2" ry="2" />
<text  x="29.39" y="207.5" >MultiThre..</text>
</g>
<g >
<title>std::__relocate_a_1&lt;PageId*, (1 samples, 1.39%)</title><rect x="91.9" y="85" width="16.4" height="15.0" fill="rgb(220,144,3)" rx="2" ry="2" />
<text  x="94.94" y="95.5" ></text>
</g>
<g >
<title>std::vector&lt;PageId, (1 samples, 1.39%)</title><rect x="91.9" y="181" width="16.4" height="15.0" fill="rgb(241,35,8)" rx="2" ry="2" />
<text  x="94.94" y="191.5" ></text>
</g>
<g >
<title>std::vector&lt;PageId, (1 samples, 1.39%)</title><rect x="1173.6" y="293" width="16.4" height="15.0" fill="rgb(254,218,28)" rx="2" ry="2" />
<text  x="1176.61" y="303.5" ></text>
</g>
<g >
<title>__memmove_avx_unaligned_erms (6 samples, 8.33%)</title><rect x="124.7" y="165" width="98.4" height="15.0" fill="rgb(216,131,31)" rx="2" ry="2" />
<text  x="127.72" y="175.5" >__memmove_a..</text>
</g>
<g >
<title>std::unordered_map&lt;PageId, (1 samples, 1.39%)</title><rect x="75.6" y="181" width="16.3" height="15.0" fill="rgb(213,223,39)" rx="2" ry="2" />
<text  x="78.56" y="191.5" ></text>
</g>
<g >
<title>std::get&lt;0ul, (1 samples, 1.39%)</title><rect x="337.8" y="85" width="16.4" height="15.0" fill="rgb(225,94,14)" rx="2" ry="2" />
<text  x="340.78" y="95.5" ></text>
</g>
<g >
<title>PageId::~PageId (1 samples, 1.39%)</title><rect x="518.1" y="85" width="16.3" height="15.0" fill="rgb(252,123,9)" rx="2" ry="2" />
<text  x="521.06" y="95.5" ></text>
</g>
<g >
<title>__GI___libc_malloc (1 samples, 1.39%)</title><rect x="1140.8" y="213" width="16.4" height="15.0" fill="rgb(226,184,39)" rx="2" ry="2" />
<text  x="1143.83" y="223.5" ></text>
</g>
<g >
<title>NetworkGenerator::generatePageFromNum (2 samples, 2.78%)</title><rect x="1108.1" y="293" width="32.7" height="15.0" fill="rgb(210,73,20)" rx="2" ry="2" />
<text  x="1111.06" y="303.5" >Ne..</text>
</g>
<g >
<title>std::__uninitialized_copy_a&lt;__gnu_cxx::__normal_iterator&lt;PageId (3 samples, 4.17%)</title><rect x="1058.9" y="213" width="49.2" height="15.0" fill="rgb(250,171,25)" rx="2" ry="2" />
<text  x="1061.89" y="223.5" >std:..</text>
</g>
<g >
<title>std::__detail::_Hash_code_base&lt;PageId, (1 samples, 1.39%)</title><rect x="403.3" y="117" width="16.4" height="15.0" fill="rgb(254,216,9)" rx="2" ry="2" />
<text  x="406.33" y="127.5" ></text>
</g>
<g >
<title>std::_Hashtable&lt;PageId, (12 samples, 16.67%)</title><rect x="272.2" y="165" width="196.7" height="15.0" fill="rgb(205,100,26)" rx="2" ry="2" />
<text  x="275.22" y="175.5" >std::_Hashtable&lt;PageId,</text>
</g>
<g >
<title>std::thread::_Invoker&lt;std::tuple&lt;MultiThreadedPageRankComputer::computeForNetwork(Network (31 samples, 43.06%)</title><rect x="10.0" y="293" width="508.1" height="15.0" fill="rgb(250,1,47)" rx="2" ry="2" />
<text  x="13.00" y="303.5" >std::thread::_Invoker&lt;std::tuple&lt;MultiThreadedPageRankComputer::compu..</text>
</g>
<g >
<title>std::__detail::_Hashtable_base&lt;PageId, (7 samples, 9.72%)</title><rect x="305.0" y="133" width="114.7" height="15.0" fill="rgb(233,109,45)" rx="2" ry="2" />
<text  x="308.00" y="143.5" >std::__detail:..</text>
</g>
<g >
<title>std::_Vector_base&lt;PageId, (1 samples, 1.39%)</title><rect x="1173.6" y="261" width="16.4" height="15.0" fill="rgb(249,104,48)" rx="2" ry="2" />
<text  x="1176.61" y="271.5" ></text>
</g>
<g >
<title>std::thread::join() (31 samples, 43.06%)</title><rect x="534.4" y="309" width="508.1" height="15.0" fill="rgb(225,74,36)" rx="2" ry="2" />
<text  x="537.44" y="319.5" >std::thread::join()</text>
</g>
<g >
<title>__gnu_cxx::__normal_iterator&lt;PageId (1 samples, 1.39%)</title><rect x="501.7" y="53" width="16.4" height="15.0" fill="rgb(234,158,28)" rx="2" ry="2" />
<text  x="504.67" y="63.5" ></text>
</g>
<g >
<title>std::pair&lt;PageId (1 samples, 1.39%)</title><rect x="518.1" y="181" width="16.3" height="15.0" fill="rgb(229,204,18)" rx="2" ry="2" />
<text  x="521.06" y="191.5" ></text>
</g>
<g >
<title>start_thread (31 samples, 43.06%)</title><rect x="10.0" y="341" width="508.1" height="15.0" fill="rgb(222,203,14)" rx="2" ry="2" />
<text  x="13.00" y="351.5" >start_thread</text>
</g>
<g >
<title>std::vector&lt;Page, (3 samples, 4.17%)</title><rect x="1058.9" y="293" width="49.2" height="15.0" fill="rgb(249,221,43)" rx="2" ry="2" />
<text  x="1061.89" y="303.5" >std:..</text>
</g>
<g >
<title>Network::~Network (1 samples, 1.39%)</title><rect x="1042.5" y="325" width="16.4" height="15.0" fill="rgb(205,144,51)" rx="2" ry="2" />
<text  x="1045.50" y="335.5" ></text>
</g>
<g >
<title>std::_Hashtable&lt;PageId, (8 samples, 11.11%)</title><rect x="288.6" y="149" width="131.1" height="15.0" fill="rgb(222,11,37)" rx="2" ry="2" />
<text  x="291.61" y="159.5" >std::_Hashtable&lt;..</text>
</g>
<g >
<title>std::_Construct&lt;PageId, (3 samples, 4.17%)</title><rect x="1058.9" y="165" width="49.2" height="15.0" fill="rgb(242,39,13)" rx="2" ry="2" />
<text  x="1061.89" y="175.5" >std:..</text>
</g>
<g >
<title>std::__uninitialized_copy_a&lt;__gnu_cxx::__normal_iterator&lt;PageId (1 samples, 1.39%)</title><rect x="501.7" y="101" width="16.4" height="15.0" fill="rgb(206,132,40)" rx="2" ry="2" />
<text  x="504.67" y="111.5" ></text>
</g>
<g >
<title>operator (1 samples, 1.39%)</title><rect x="1075.3" y="117" width="16.4" height="15.0" fill="rgb(233,220,21)" rx="2" ry="2" />
<text  x="1078.28" y="127.5" ></text>
</g>
<g >
<title>PageId::PageId (8 samples, 11.11%)</title><rect x="108.3" y="197" width="131.1" height="15.0" fill="rgb(216,224,37)" rx="2" ry="2" />
<text  x="111.33" y="207.5" >PageId::PageId</text>
</g>
<g >
<title>std::__uninitialized_copy&lt;false&gt;::__uninit_copy&lt;__gnu_cxx::__normal_iterator&lt;PageId (1 samples, 1.39%)</title><rect x="501.7" y="69" width="16.4" height="15.0" fill="rgb(211,6,14)" rx="2" ry="2" />
<text  x="504.67" y="79.5" ></text>
</g>
<g >
<title>std::unordered_map&lt;PageId, (16 samples, 22.22%)</title><rect x="239.4" y="197" width="262.3" height="15.0" fill="rgb(224,157,46)" rx="2" ry="2" />
<text  x="242.44" y="207.5" >std::unordered_map&lt;PageId,</text>
</g>
<g >
<title>Page::~Page (1 samples, 1.39%)</title><rect x="1173.6" y="309" width="16.4" height="15.0" fill="rgb(249,52,4)" rx="2" ry="2" />
<text  x="1176.61" y="319.5" ></text>
</g>
<g >
<title>std::__detail::_Hashtable_alloc&lt;std::allocator&lt;std::__detail::_Hash_node&lt;std::pair&lt;PageId (1 samples, 1.39%)</title><rect x="518.1" y="245" width="16.3" height="15.0" fill="rgb(212,205,11)" rx="2" ry="2" />
<text  x="521.06" y="255.5" ></text>
</g>
<g >
<title>std::thread::_State_impl&lt;std::thread::_Invoker&lt;std::tuple&lt;MultiThreadedPageRankComputer::computeForNetwork(Network (31 samples, 43.06%)</title><rect x="10.0" y="309" width="508.1" height="15.0" fill="rgb(214,152,26)" rx="2" ry="2" />
<text  x="13.00" y="319.5" >std::thread::_State_impl&lt;std::thread::_Invoker&lt;std::tuple&lt;MultiThread..</text>
</g>
<g >
<title>std::_Hashtable&lt;PageId, (1 samples, 1.39%)</title><rect x="75.6" y="149" width="16.3" height="15.0" fill="rgb(253,42,31)" rx="2" ry="2" />
<text  x="78.56" y="159.5" ></text>
</g>
<g >
<title>std::_Destroy&lt;PageId*, (1 samples, 1.39%)</title><rect x="1042.5" y="197" width="16.4" height="15.0" fill="rgb(214,172,29)" rx="2" ry="2" />
<text  x="1045.50" y="207.5" ></text>
</g>
<g >
<title>std::__cxx11::basic_string&lt;char, (2 samples, 2.78%)</title><rect x="1140.8" y="245" width="32.8" height="15.0" fill="rgb(214,199,23)" rx="2" ry="2" />
<text  x="1143.83" y="255.5" >st..</text>
</g>
<g >
<title>__pthread_clockjoin_ex (31 samples, 43.06%)</title><rect x="534.4" y="293" width="508.1" height="15.0" fill="rgb(229,182,40)" rx="2" ry="2" />
<text  x="537.44" y="303.5" >__pthread_clockjoin_ex</text>
</g>
<g >
<title>std::uninitialized_copy&lt;__gnu_cxx::__normal_iterator&lt;PageId (3 samples, 4.17%)</title><rect x="1058.9" y="197" width="49.2" height="15.0" fill="rgb(227,9,6)" rx="2" ry="2" />
<text  x="1061.89" y="207.5" >std:..</text>
</g>
<g >
<title>Network::addPage (3 samples, 4.17%)</title><rect x="1058.9" y="309" width="49.2" height="15.0" fill="rgb(241,226,5)" rx="2" ry="2" />
<text  x="1061.89" y="319.5" >Netw..</text>
</g>
<g >
<title>std::__detail::_Hash_code_base&lt;PageId, (3 samples, 4.17%)</title><rect x="419.7" y="149" width="49.2" height="15.0" fill="rgb(214,58,1)" rx="2" ry="2" />
<text  x="422.72" y="159.5" >std:..</text>
</g>
<g >
<title>std::_Hash_bytes(void (1 samples, 1.39%)</title><rect x="468.9" y="101" width="16.4" height="15.0" fill="rgb(216,10,45)" rx="2" ry="2" />
<text  x="471.89" y="111.5" ></text>
</g>
<g >
<title>std::hash&lt;std::__cxx11::basic_string&lt;char, (1 samples, 1.39%)</title><rect x="468.9" y="133" width="16.4" height="15.0" fill="rgb(229,46,6)" rx="2" ry="2" />
<text  x="471.89" y="143.5" ></text>
</g>
<g >
<title>std::__cxx11::basic_string&lt;char, (1 samples, 1.39%)</title><rect x="1091.7" y="117" width="16.4" height="15.0" fill="rgb(234,119,6)" rx="2" ry="2" />
<text  x="1094.67" y="127.5" ></text>
</g>
<g >
<title>__gnu_cxx::new_allocator&lt;Page&gt;::construct&lt;Page, (3 samples, 4.17%)</title><rect x="1058.9" y="261" width="49.2" height="15.0" fill="rgb(245,194,54)" rx="2" ry="2" />
<text  x="1061.89" y="271.5" >__gn..</text>
</g>
<g >
<title>std::_Destroy_aux&lt;false&gt;::__destroy&lt;PageId*&gt; (1 samples, 1.39%)</title><rect x="518.1" y="117" width="16.3" height="15.0" fill="rgb(215,6,47)" rx="2" ry="2" />
<text  x="521.06" y="127.5" ></text>
</g>
<g >
<title>std::unordered_map&lt;PageId, (1 samples, 1.39%)</title><rect x="518.1" y="293" width="16.3" height="15.0" fill="rgb(242,182,15)" rx="2" ry="2" />
<text  x="521.06" y="303.5" ></text>
</g>
<g >
<title>__gnu_cxx::new_allocator&lt;PageId&gt;::destroy&lt;PageId&gt; (1 samples, 1.39%)</title><rect x="91.9" y="37" width="16.4" height="15.0" fill="rgb(210,154,4)" rx="2" ry="2" />
<text  x="94.94" y="47.5" ></text>
</g>
<g >
<title>std::_Hashtable&lt;PageId, (1 samples, 1.39%)</title><rect x="518.1" y="277" width="16.3" height="15.0" fill="rgb(223,8,31)" rx="2" ry="2" />
<text  x="521.06" y="287.5" ></text>
</g>
<g >
<title>all (72 samples, 100%)</title><rect x="10.0" y="373" width="1180.0" height="15.0" fill="rgb(209,208,12)" rx="2" ry="2" />
<text  x="13.00" y="383.5" ></text>
</g>
<g >
<title>Page::Page (1 samples, 1.39%)</title><rect x="1108.1" y="277" width="16.3" height="15.0" fill="rgb(248,74,8)" rx="2" ry="2" />
<text  x="1111.06" y="287.5" ></text>
</g>
<g >
<title>std::_Hash_impl::hash (1 samples, 1.39%)</title><rect x="468.9" y="117" width="16.4" height="15.0" fill="rgb(216,125,33)" rx="2" ry="2" />
<text  x="471.89" y="127.5" ></text>
</g>
<g >
<title>std::__relocate_a&lt;PageId*, (1 samples, 1.39%)</title><rect x="91.9" y="101" width="16.4" height="15.0" fill="rgb(234,180,20)" rx="2" ry="2" />
<text  x="94.94" y="111.5" ></text>
</g>
<g >
<title>std::vector&lt;PageId, (1 samples, 1.39%)</title><rect x="91.9" y="149" width="16.4" height="15.0" fill="rgb(252,30,8)" rx="2" ry="2" />
<text  x="94.94" y="159.5" ></text>
</g>
<g >
<title>std::__cxx11::basic_string&lt;char, (2 samples, 2.78%)</title><rect x="1075.3" y="133" width="32.8" height="15.0" fill="rgb(246,35,34)" rx="2" ry="2" />
<text  x="1078.28" y="143.5" >st..</text>
</g>
<g >
<title>std::__detail::_Hashtable_alloc&lt;std::allocator&lt;std::__detail::_Hash_node&lt;std::pair&lt;PageId (1 samples, 1.39%)</title><rect x="518.1" y="229" width="16.3" height="15.0" fill="rgb(212,167,41)" rx="2" ry="2" />
<text  x="521.06" y="239.5" ></text>
</g>
<g >
<title>clone (31 samples, 43.06%)</title><rect x="10.0" y="357" width="508.1" height="15.0" fill="rgb(242,60,49)" rx="2" ry="2" />
<text  x="13.00" y="367.5" >clone</text>
</g>
<g >
<title>PageId::operator== (2 samples, 2.78%)</title><rect x="370.6" y="85" width="32.7" height="15.0" fill="rgb(220,60,26)" rx="2" ry="2" />
<text  x="373.56" y="95.5" >Pa..</text>
</g>
<g >
<title>grow_heap (1 samples, 1.39%)</title><rect x="42.8" y="69" width="16.4" height="15.0" fill="rgb(212,70,24)" rx="2" ry="2" />
<text  x="45.78" y="79.5" ></text>
</g>
<g >
<title>std::_Destroy&lt;Page*, (1 samples, 1.39%)</title><rect x="1042.5" y="293" width="16.4" height="15.0" fill="rgb(230,223,45)" rx="2" ry="2" />
<text  x="1045.50" y="303.5" ></text>
</g>
<g >
<title>std::_Destroy&lt;PageId*&gt; (1 samples, 1.39%)</title><rect x="518.1" y="133" width="16.3" height="15.0" fill="rgb(219,66,1)" rx="2" ry="2" />
<text  x="521.06" y="143.5" ></text>
</g>
<g >
<title>std::vector&lt;Page, (1 samples, 1.39%)</title><rect x="501.7" y="197" width="16.4" height="15.0" fill="rgb(226,125,7)" rx="2" ry="2" />
<text  x="504.67" y="207.5" ></text>
</g>
<g >
<title>PageIdHash::operator() (1 samples, 1.39%)</title><rect x="468.9" y="149" width="16.4" height="15.0" fill="rgb(221,51,38)" rx="2" ry="2" />
<text  x="471.89" y="159.5" ></text>
</g>
<g >
<title>std::__uninitialized_copy&lt;false&gt;::__uninit_copy&lt;__gnu_cxx::__normal_iterator&lt;PageId (3 samples, 4.17%)</title><rect x="1058.9" y="181" width="49.2" height="15.0" fill="rgb(243,180,53)" rx="2" ry="2" />
<text  x="1061.89" y="191.5" >std:..</text>
</g>
<g >
<title>std::__detail::_Hash_code_base&lt;PageId, (1 samples, 1.39%)</title><rect x="485.3" y="149" width="16.4" height="15.0" fill="rgb(254,12,13)" rx="2" ry="2" />
<text  x="488.28" y="159.5" ></text>
</g>
<g >
<title>std::__cxx11::basic_string&lt;char, (1 samples, 1.39%)</title><rect x="1157.2" y="229" width="16.4" height="15.0" fill="rgb(231,212,29)" rx="2" ry="2" />
<text  x="1160.22" y="239.5" ></text>
</g>
<g >
<title>std::_Destroy&lt;PageId*, (1 samples, 1.39%)</title><rect x="518.1" y="149" width="16.3" height="15.0" fill="rgb(228,77,43)" rx="2" ry="2" />
<text  x="521.06" y="159.5" ></text>
</g>
<g >
<title>__memcmp_avx2_movbe (1 samples, 1.39%)</title><rect x="386.9" y="37" width="16.4" height="15.0" fill="rgb(233,25,41)" rx="2" ry="2" />
<text  x="389.94" y="47.5" ></text>
</g>
<g >
<title>operator (2 samples, 2.78%)</title><rect x="26.4" y="133" width="32.8" height="15.0" fill="rgb(252,196,38)" rx="2" ry="2" />
<text  x="29.39" y="143.5" >op..</text>
</g>
<g >
<title>Page::~Page (1 samples, 1.39%)</title><rect x="1042.5" y="229" width="16.4" height="15.0" fill="rgb(213,22,35)" rx="2" ry="2" />
<text  x="1045.50" y="239.5" ></text>
</g>
<g >
<title>_int_free (1 samples, 1.39%)</title><rect x="1173.6" y="213" width="16.4" height="15.0" fill="rgb(226,94,15)" rx="2" ry="2" />
<text  x="1176.61" y="223.5" ></text>
</g>
<g >
<title>std::_Destroy&lt;Page*&gt; (1 samples, 1.39%)</title><rect x="1042.5" y="277" width="16.4" height="15.0" fill="rgb(206,209,17)" rx="2" ry="2" />
<text  x="1045.50" y="287.5" ></text>
</g>
<g >
<title>std::vector&lt;PageId, (1 samples, 1.39%)</title><rect x="501.7" y="117" width="16.4" height="15.0" fill="rgb(225,199,8)" rx="2" ry="2" />
<text  x="504.67" y="127.5" ></text>
</g>
<g >
<title>std::__invoke_impl&lt;void, (31 samples, 43.06%)</title><rect x="10.0" y="245" width="508.1" height="15.0" fill="rgb(227,123,48)" rx="2" ry="2" />
<text  x="13.00" y="255.5" >std::__invoke_impl&lt;void,</text>
</g>
<g >
<title>__memmove_avx_unaligned (1 samples, 1.39%)</title><rect x="1124.4" y="181" width="16.4" height="15.0" fill="rgb(232,181,1)" rx="2" ry="2" />
<text  x="1127.44" y="191.5" ></text>
</g>
<g >
<title>std::__cxx11::basic_string&lt;char, (1 samples, 1.39%)</title><rect x="1124.4" y="197" width="16.4" height="15.0" fill="rgb(226,224,20)" rx="2" ry="2" />
<text  x="1127.44" y="207.5" ></text>
</g>
<g >
<title>std::_Destroy&lt;Page&gt; (1 samples, 1.39%)</title><rect x="1042.5" y="245" width="16.4" height="15.0" fill="rgb(236,58,48)" rx="2" ry="2" />
<text  x="1045.50" y="255.5" ></text>
</g>
<g >
<title>operator (1 samples, 1.39%)</title><rect x="223.1" y="165" width="16.3" height="15.0" fill="rgb(242,216,43)" rx="2" ry="2" />
<text  x="226.06" y="175.5" ></text>
</g>
</g>
</svg>
